<?xml version="1.0" standalone="no"?>
<!DOCTYPE svg PUBLIC "-//W3C//DTD SVG 1.0//EN" "http://www.w3.org/TR/2001/REC-SVG-20010904/DTD/svg10.dtd">
<svg width="825" height="775" viewBox="-387.5 -537.5 825 775" xmlns="http://www.w3.org/2000/svg" xmlns:svg="http://www.w3.org/2000/svg">
<title>One version of the "Cretan" type of labyrinth with constant-width paths made entirely from semicircular and 90-degree circular arcs</title>
<g transform="scale(1,-1)">
<path style="fill:none;stroke:#000000;stroke-width:25;stroke-linecap:round;stroke-linejoin:round" d="M-100,-100
C-210.457,-100,-300,-10.4568,-300,100
V125
C-300,304.492,-154.492,450,25,450
C204.492,450,350,304.492,350,125
V100
C350,-38.071,238.071,-150,100,-150
C72.386,-150,50,-127.614,50,-100
C50,-72.386,72.386,-50,100,-50
C182.843,-50,250,17.1575,250,100
V125
C250,249.264,149.264,350,25,350
C-99.2639,350,-200,249.264,-200,125
V100
C-200,44.7717,-155.228,0,-100,0
H100
C155.228,0,200,44.7717,200,100
V125
C200,221.65,121.65,300,25,300
C-71.6497,300,-150,221.65,-150,125
V100
C-150,72.386,-127.614,50,-100,50
C-72.386,50,-50,72.386,-50,100
V125
C-50,166.421,-16.4211,200,25,200
C66.4211,200,100,166.421,100,125
V100
M100,-100
C210.457,-100,300,-10.4568,300,100
V125
C300,276.878,176.878,400,25,400
C-126.878,400,-250,276.878,-250,125
V100
C-250,17.1575,-182.843,-50,-100,-50
C-72.386,-50,-50,-72.386,-50,-100
C-50,-127.614,-72.386,-150,-100,-150
C-238.071,-150,-350,-38.071,-350,100
V125
C-350,332.107,-182.107,500,25,500
C232.107,500,400,332.107,400,125
V100
C400,-65.6853,265.685,-200,100,-200
C44.7717,-200,0,-155.228,0,-100
V125
C0,138.807,11.1931,150,25,150
C38.8069,150,50,138.807,50,125
V100
C50,72.386,72.386,50,100,50
C127.614,50,150,72.386,150,100
V125
C150,194.035,94.0354,250,25,250
C-44.0354,250,-100,194.035,-100,125
V100"/>
</g>
</svg>
