ISO-10303-21;
HEADER;
/* Generated by software containing ST-Developer
 * from STEP Tools, Inc. (www.steptools.com) 
 */

FILE_DESCRIPTION(
/* description */ ('',
'CAx-IF Rec.Pracs.---Representation and Presentation of Product Manufa
cturing Information (PMI)---4.0---2014-10-13'),
/* implementation_level */ '2;1');

FILE_NAME(
/* name */ 'cutter_part1.step',
/* time_stamp */ '2025-04-10T16:27:42+02:00',
/* author */ (''),
/* organization */ (''),
/* preprocessor_version */ 'ST-DEVELOPER v20',
/* originating_system */ 'Autodesk Translation Framework v13.20.0.188',

/* authorisation */ '');

FILE_SCHEMA (('AP242_MANAGED_MODEL_BASED_3D_ENGINEERING_MIM_LF { 1 0 10303 442 1 1 4 }'));
ENDSEC;

DATA;
#10=MECHANICAL_DESIGN_GEOMETRIC_PRESENTATION_REPRESENTATION('',(#13),#1114);
#11=SHAPE_REPRESENTATION_RELATIONSHIP('SRR','None',#1120,#12);
#12=ADVANCED_BREP_SHAPE_REPRESENTATION('',(#14),#1113);
#13=STYLED_ITEM('',(#1129),#14);
#14=MANIFOLD_SOLID_BREP('K\X\F6rper1',#665);
#15=CONICAL_SURFACE('',#692,1.,0.0438315577256377);
#16=CONICAL_SURFACE('',#697,1.,0.0438315577256377);
#17=CONICAL_SURFACE('',#701,2.55,0.059782692113477);
#18=CONICAL_SURFACE('',#703,2.55,0.059782692113477);
#19=CONICAL_SURFACE('',#705,3.2,0.0874953408023913);
#20=CONICAL_SURFACE('',#708,3.2,0.0874953408023913);
#21=FACE_BOUND('',#89,.T.);
#22=FACE_BOUND('',#114,.T.);
#23=(
BOUNDED_CURVE()
B_SPLINE_CURVE(2,(#977,#978,#979),.UNSPECIFIED.,.F.,.F.)
B_SPLINE_CURVE_WITH_KNOTS((3,3),(0.,0.501920395820562),.UNSPECIFIED.)
CURVE()
GEOMETRIC_REPRESENTATION_ITEM()
RATIONAL_B_SPLINE_CURVE((1.,1.02973462603396,1.))
REPRESENTATION_ITEM('')
);
#24=(
BOUNDED_CURVE()
B_SPLINE_CURVE(2,(#983,#984,#985),.UNSPECIFIED.,.F.,.F.)
B_SPLINE_CURVE_WITH_KNOTS((3,3),(0.,0.501920395820562),.UNSPECIFIED.)
CURVE()
GEOMETRIC_REPRESENTATION_ITEM()
RATIONAL_B_SPLINE_CURVE((1.,1.02973462603396,1.))
REPRESENTATION_ITEM('')
);
#25=(
BOUNDED_CURVE()
B_SPLINE_CURVE(2,(#1057,#1058,#1059),.UNSPECIFIED.,.F.,.F.)
B_SPLINE_CURVE_WITH_KNOTS((3,3),(0.,1.55230264810247),.UNSPECIFIED.)
CURVE()
GEOMETRIC_REPRESENTATION_ITEM()
RATIONAL_B_SPLINE_CURVE((1.,1.07388636207818,1.))
REPRESENTATION_ITEM('')
);
#26=(
BOUNDED_CURVE()
B_SPLINE_CURVE(2,(#1066,#1067,#1068),.UNSPECIFIED.,.F.,.F.)
B_SPLINE_CURVE_WITH_KNOTS((3,3),(0.,1.55230264810247),.UNSPECIFIED.)
CURVE()
GEOMETRIC_REPRESENTATION_ITEM()
RATIONAL_B_SPLINE_CURVE((1.,1.07388636207818,1.))
REPRESENTATION_ITEM('')
);
#27=PLANE('',#670);
#28=PLANE('',#674);
#29=PLANE('',#678);
#30=PLANE('',#679);
#31=PLANE('',#688);
#32=PLANE('',#691);
#33=PLANE('',#694);
#34=PLANE('',#698);
#35=PLANE('',#699);
#36=PLANE('',#704);
#37=PLANE('',#707);
#38=PLANE('',#710);
#39=PLANE('',#712);
#40=PLANE('',#713);
#41=PLANE('',#717);
#42=PLANE('',#718);
#43=PLANE('',#719);
#44=PLANE('',#720);
#45=PLANE('',#721);
#46=PLANE('',#722);
#47=PLANE('',#723);
#48=PLANE('',#724);
#49=FACE_OUTER_BOUND('',#83,.T.);
#50=FACE_OUTER_BOUND('',#84,.T.);
#51=FACE_OUTER_BOUND('',#85,.T.);
#52=FACE_OUTER_BOUND('',#86,.T.);
#53=FACE_OUTER_BOUND('',#87,.T.);
#54=FACE_OUTER_BOUND('',#88,.T.);
#55=FACE_OUTER_BOUND('',#90,.T.);
#56=FACE_OUTER_BOUND('',#91,.T.);
#57=FACE_OUTER_BOUND('',#92,.T.);
#58=FACE_OUTER_BOUND('',#93,.T.);
#59=FACE_OUTER_BOUND('',#94,.T.);
#60=FACE_OUTER_BOUND('',#95,.T.);
#61=FACE_OUTER_BOUND('',#96,.T.);
#62=FACE_OUTER_BOUND('',#97,.T.);
#63=FACE_OUTER_BOUND('',#98,.T.);
#64=FACE_OUTER_BOUND('',#99,.T.);
#65=FACE_OUTER_BOUND('',#100,.T.);
#66=FACE_OUTER_BOUND('',#101,.T.);
#67=FACE_OUTER_BOUND('',#102,.T.);
#68=FACE_OUTER_BOUND('',#103,.T.);
#69=FACE_OUTER_BOUND('',#104,.T.);
#70=FACE_OUTER_BOUND('',#105,.T.);
#71=FACE_OUTER_BOUND('',#106,.T.);
#72=FACE_OUTER_BOUND('',#107,.T.);
#73=FACE_OUTER_BOUND('',#108,.T.);
#74=FACE_OUTER_BOUND('',#109,.T.);
#75=FACE_OUTER_BOUND('',#110,.T.);
#76=FACE_OUTER_BOUND('',#111,.T.);
#77=FACE_OUTER_BOUND('',#112,.T.);
#78=FACE_OUTER_BOUND('',#113,.T.);
#79=FACE_OUTER_BOUND('',#115,.T.);
#80=FACE_OUTER_BOUND('',#116,.T.);
#81=FACE_OUTER_BOUND('',#117,.T.);
#82=FACE_OUTER_BOUND('',#118,.T.);
#83=EDGE_LOOP('',(#435,#436,#437,#438));
#84=EDGE_LOOP('',(#439,#440,#441,#442,#443,#444,#445,#446,#447,#448,#449));
#85=EDGE_LOOP('',(#450,#451,#452,#453,#454,#455));
#86=EDGE_LOOP('',(#456,#457,#458,#459));
#87=EDGE_LOOP('',(#460,#461,#462,#463,#464,#465,#466,#467,#468,#469,#470,
#471,#472,#473,#474,#475,#476));
#88=EDGE_LOOP('',(#477,#478,#479,#480,#481,#482,#483,#484,#485,#486,#487,
#488,#489,#490,#491,#492,#493));
#89=EDGE_LOOP('',(#494));
#90=EDGE_LOOP('',(#495,#496,#497,#498));
#91=EDGE_LOOP('',(#499,#500,#501,#502));
#92=EDGE_LOOP('',(#503,#504,#505,#506));
#93=EDGE_LOOP('',(#507,#508,#509,#510));
#94=EDGE_LOOP('',(#511,#512,#513,#514));
#95=EDGE_LOOP('',(#515,#516,#517,#518));
#96=EDGE_LOOP('',(#519,#520,#521,#522));
#97=EDGE_LOOP('',(#523,#524));
#98=EDGE_LOOP('',(#525,#526));
#99=EDGE_LOOP('',(#527,#528,#529,#530));
#100=EDGE_LOOP('',(#531,#532,#533,#534));
#101=EDGE_LOOP('',(#535,#536,#537,#538));
#102=EDGE_LOOP('',(#539,#540,#541,#542));
#103=EDGE_LOOP('',(#543,#544));
#104=EDGE_LOOP('',(#545,#546,#547,#548));
#105=EDGE_LOOP('',(#549,#550,#551,#552,#553,#554,#555,#556,#557,#558,#559));
#106=EDGE_LOOP('',(#560,#561,#562,#563,#564,#565));
#107=EDGE_LOOP('',(#566,#567,#568,#569));
#108=EDGE_LOOP('',(#570,#571,#572,#573));
#109=EDGE_LOOP('',(#574,#575,#576,#577));
#110=EDGE_LOOP('',(#578,#579,#580,#581));
#111=EDGE_LOOP('',(#582,#583,#584,#585,#586,#587,#588,#589));
#112=EDGE_LOOP('',(#590,#591,#592,#593));
#113=EDGE_LOOP('',(#594,#595,#596,#597,#598,#599,#600));
#114=EDGE_LOOP('',(#601));
#115=EDGE_LOOP('',(#602,#603,#604,#605));
#116=EDGE_LOOP('',(#606,#607,#608,#609,#610,#611));
#117=EDGE_LOOP('',(#612,#613,#614,#615,#616));
#118=EDGE_LOOP('',(#617,#618,#619,#620,#621,#622,#623,#624));
#119=LINE('',#916,#186);
#120=LINE('',#919,#187);
#121=LINE('',#922,#188);
#122=LINE('',#926,#189);
#123=LINE('',#930,#190);
#124=LINE('',#934,#191);
#125=LINE('',#936,#192);
#126=LINE('',#938,#193);
#127=LINE('',#939,#194);
#128=LINE('',#942,#195);
#129=LINE('',#944,#196);
#130=LINE('',#946,#197);
#131=LINE('',#947,#198);
#132=LINE('',#953,#199);
#133=LINE('',#956,#200);
#134=LINE('',#959,#201);
#135=LINE('',#961,#202);
#136=LINE('',#963,#203);
#137=LINE('',#965,#204);
#138=LINE('',#967,#205);
#139=LINE('',#969,#206);
#140=LINE('',#971,#207);
#141=LINE('',#973,#208);
#142=LINE('',#975,#209);
#143=LINE('',#981,#210);
#144=LINE('',#987,#211);
#145=LINE('',#989,#212);
#146=LINE('',#991,#213);
#147=LINE('',#992,#214);
#148=LINE('',#995,#215);
#149=LINE('',#997,#216);
#150=LINE('',#999,#217);
#151=LINE('',#1001,#218);
#152=LINE('',#1003,#219);
#153=LINE('',#1007,#220);
#154=LINE('',#1010,#221);
#155=LINE('',#1020,#222);
#156=LINE('',#1021,#223);
#157=LINE('',#1024,#224);
#158=LINE('',#1025,#225);
#159=LINE('',#1029,#226);
#160=LINE('',#1032,#227);
#161=LINE('',#1033,#228);
#162=LINE('',#1039,#229);
#163=LINE('',#1043,#230);
#164=LINE('',#1051,#231);
#165=LINE('',#1052,#232);
#166=LINE('',#1056,#233);
#167=LINE('',#1071,#234);
#168=LINE('',#1073,#235);
#169=LINE('',#1075,#236);
#170=LINE('',#1076,#237);
#171=LINE('',#1078,#238);
#172=LINE('',#1081,#239);
#173=LINE('',#1083,#240);
#174=LINE('',#1087,#241);
#175=LINE('',#1090,#242);
#176=LINE('',#1091,#243);
#177=LINE('',#1094,#244);
#178=LINE('',#1095,#245);
#179=LINE('',#1097,#246);
#180=LINE('',#1100,#247);
#181=LINE('',#1101,#248);
#182=LINE('',#1104,#249);
#183=LINE('',#1105,#250);
#184=LINE('',#1107,#251);
#185=LINE('',#1109,#252);
#186=VECTOR('',#731,10.);
#187=VECTOR('',#734,10.);
#188=VECTOR('',#737,10.);
#189=VECTOR('',#740,10.);
#190=VECTOR('',#743,10.);
#191=VECTOR('',#746,10.);
#192=VECTOR('',#747,10.);
#193=VECTOR('',#748,10.);
#194=VECTOR('',#749,10.);
#195=VECTOR('',#752,10.);
#196=VECTOR('',#753,10.);
#197=VECTOR('',#754,10.);
#198=VECTOR('',#755,10.);
#199=VECTOR('',#760,10.);
#200=VECTOR('',#763,10.);
#201=VECTOR('',#766,10.);
#202=VECTOR('',#767,10.);
#203=VECTOR('',#768,10.);
#204=VECTOR('',#769,10.);
#205=VECTOR('',#770,10.);
#206=VECTOR('',#771,10.);
#207=VECTOR('',#772,10.);
#208=VECTOR('',#773,10.);
#209=VECTOR('',#774,10.);
#210=VECTOR('',#775,10.);
#211=VECTOR('',#776,10.);
#212=VECTOR('',#777,10.);
#213=VECTOR('',#778,10.);
#214=VECTOR('',#779,10.);
#215=VECTOR('',#782,10.);
#216=VECTOR('',#783,10.);
#217=VECTOR('',#784,10.);
#218=VECTOR('',#785,10.);
#219=VECTOR('',#786,10.);
#220=VECTOR('',#789,10.);
#221=VECTOR('',#792,10.);
#222=VECTOR('',#805,10.);
#223=VECTOR('',#806,10.);
#224=VECTOR('',#809,10.);
#225=VECTOR('',#810,10.);
#226=VECTOR('',#815,10.);
#227=VECTOR('',#818,10.);
#228=VECTOR('',#819,10.);
#229=VECTOR('',#826,10.);
#230=VECTOR('',#833,10.);
#231=VECTOR('',#844,10.);
#232=VECTOR('',#845,10.);
#233=VECTOR('',#850,10.);
#234=VECTOR('',#863,10.);
#235=VECTOR('',#864,10.);
#236=VECTOR('',#865,10.);
#237=VECTOR('',#866,10.);
#238=VECTOR('',#867,10.);
#239=VECTOR('',#872,10.);
#240=VECTOR('',#875,10.);
#241=VECTOR('',#880,2.5);
#242=VECTOR('',#885,10.);
#243=VECTOR('',#886,10.);
#244=VECTOR('',#889,10.);
#245=VECTOR('',#890,10.);
#246=VECTOR('',#893,10.);
#247=VECTOR('',#896,10.);
#248=VECTOR('',#897,10.);
#249=VECTOR('',#900,10.);
#250=VECTOR('',#901,10.);
#251=VECTOR('',#904,10.);
#252=VECTOR('',#907,10.);
#253=CIRCLE('',#668,2.);
#254=CIRCLE('',#669,2.);
#255=CIRCLE('',#671,0.616228070175439);
#256=CIRCLE('',#672,0.829197080291971);
#257=CIRCLE('',#673,1.18245614035088);
#258=CIRCLE('',#676,2.);
#259=CIRCLE('',#677,2.);
#260=CIRCLE('',#680,3.);
#261=CIRCLE('',#681,3.);
#262=CIRCLE('',#682,1.13859649122807);
#263=CIRCLE('',#683,0.7992700729927);
#264=CIRCLE('',#684,0.594298245614035);
#265=CIRCLE('',#685,2.5);
#266=CIRCLE('',#687,3.);
#267=CIRCLE('',#690,3.);
#268=CIRCLE('',#693,0.375);
#269=CIRCLE('',#695,1.);
#270=CIRCLE('',#696,1.125);
#271=CIRCLE('',#700,0.5);
#272=CIRCLE('',#702,1.75475820849021);
#273=CIRCLE('',#706,0.7);
#274=CIRCLE('',#709,2.53891607363243);
#275=CIRCLE('',#711,1.125);
#276=CIRCLE('',#716,2.5);
#277=VERTEX_POINT('',#912);
#278=VERTEX_POINT('',#913);
#279=VERTEX_POINT('',#915);
#280=VERTEX_POINT('',#917);
#281=VERTEX_POINT('',#921);
#282=VERTEX_POINT('',#923);
#283=VERTEX_POINT('',#925);
#284=VERTEX_POINT('',#927);
#285=VERTEX_POINT('',#929);
#286=VERTEX_POINT('',#931);
#287=VERTEX_POINT('',#933);
#288=VERTEX_POINT('',#935);
#289=VERTEX_POINT('',#937);
#290=VERTEX_POINT('',#941);
#291=VERTEX_POINT('',#943);
#292=VERTEX_POINT('',#945);
#293=VERTEX_POINT('',#949);
#294=VERTEX_POINT('',#950);
#295=VERTEX_POINT('',#952);
#296=VERTEX_POINT('',#954);
#297=VERTEX_POINT('',#958);
#298=VERTEX_POINT('',#960);
#299=VERTEX_POINT('',#962);
#300=VERTEX_POINT('',#964);
#301=VERTEX_POINT('',#966);
#302=VERTEX_POINT('',#968);
#303=VERTEX_POINT('',#970);
#304=VERTEX_POINT('',#972);
#305=VERTEX_POINT('',#974);
#306=VERTEX_POINT('',#976);
#307=VERTEX_POINT('',#980);
#308=VERTEX_POINT('',#982);
#309=VERTEX_POINT('',#986);
#310=VERTEX_POINT('',#988);
#311=VERTEX_POINT('',#990);
#312=VERTEX_POINT('',#994);
#313=VERTEX_POINT('',#996);
#314=VERTEX_POINT('',#998);
#315=VERTEX_POINT('',#1000);
#316=VERTEX_POINT('',#1002);
#317=VERTEX_POINT('',#1004);
#318=VERTEX_POINT('',#1006);
#319=VERTEX_POINT('',#1008);
#320=VERTEX_POINT('',#1014);
#321=VERTEX_POINT('',#1017);
#322=VERTEX_POINT('',#1018);
#323=VERTEX_POINT('',#1023);
#324=VERTEX_POINT('',#1027);
#325=VERTEX_POINT('',#1031);
#326=VERTEX_POINT('',#1037);
#327=VERTEX_POINT('',#1038);
#328=VERTEX_POINT('',#1048);
#329=VERTEX_POINT('',#1049);
#330=VERTEX_POINT('',#1055);
#331=VERTEX_POINT('',#1064);
#332=VERTEX_POINT('',#1070);
#333=VERTEX_POINT('',#1072);
#334=VERTEX_POINT('',#1074);
#335=VERTEX_POINT('',#1077);
#336=VERTEX_POINT('',#1086);
#337=VERTEX_POINT('',#1093);
#338=VERTEX_POINT('',#1099);
#339=VERTEX_POINT('',#1103);
#340=EDGE_CURVE('',#277,#278,#253,.T.);
#341=EDGE_CURVE('',#278,#279,#119,.T.);
#342=EDGE_CURVE('',#279,#280,#254,.T.);
#343=EDGE_CURVE('',#280,#277,#120,.T.);
#344=EDGE_CURVE('',#281,#279,#121,.T.);
#345=EDGE_CURVE('',#281,#282,#255,.T.);
#346=EDGE_CURVE('',#283,#282,#122,.T.);
#347=EDGE_CURVE('',#283,#284,#256,.T.);
#348=EDGE_CURVE('',#285,#284,#123,.T.);
#349=EDGE_CURVE('',#285,#286,#257,.T.);
#350=EDGE_CURVE('',#287,#286,#124,.T.);
#351=EDGE_CURVE('',#288,#287,#125,.T.);
#352=EDGE_CURVE('',#288,#289,#126,.T.);
#353=EDGE_CURVE('',#280,#289,#127,.T.);
#354=EDGE_CURVE('',#278,#290,#128,.T.);
#355=EDGE_CURVE('',#290,#291,#129,.T.);
#356=EDGE_CURVE('',#291,#292,#130,.T.);
#357=EDGE_CURVE('',#292,#281,#131,.T.);
#358=EDGE_CURVE('',#293,#294,#258,.T.);
#359=EDGE_CURVE('',#294,#295,#132,.T.);
#360=EDGE_CURVE('',#295,#296,#259,.T.);
#361=EDGE_CURVE('',#296,#293,#133,.T.);
#362=EDGE_CURVE('',#296,#297,#134,.T.);
#363=EDGE_CURVE('',#297,#298,#135,.T.);
#364=EDGE_CURVE('',#298,#299,#136,.T.);
#365=EDGE_CURVE('',#299,#300,#137,.T.);
#366=EDGE_CURVE('',#300,#301,#138,.T.);
#367=EDGE_CURVE('',#301,#302,#139,.T.);
#368=EDGE_CURVE('',#302,#303,#140,.T.);
#369=EDGE_CURVE('',#303,#304,#141,.T.);
#370=EDGE_CURVE('',#304,#305,#142,.T.);
#371=EDGE_CURVE('',#305,#306,#23,.T.);
#372=EDGE_CURVE('',#306,#307,#143,.T.);
#373=EDGE_CURVE('',#307,#308,#24,.T.);
#374=EDGE_CURVE('',#308,#309,#144,.T.);
#375=EDGE_CURVE('',#309,#310,#145,.T.);
#376=EDGE_CURVE('',#310,#311,#146,.T.);
#377=EDGE_CURVE('',#311,#293,#147,.T.);
#378=EDGE_CURVE('',#312,#295,#148,.T.);
#379=EDGE_CURVE('',#312,#313,#149,.T.);
#380=EDGE_CURVE('',#314,#313,#150,.T.);
#381=EDGE_CURVE('',#314,#315,#151,.T.);
#382=EDGE_CURVE('',#315,#316,#152,.T.);
#383=EDGE_CURVE('',#317,#316,#260,.T.);
#384=EDGE_CURVE('',#317,#318,#153,.T.);
#385=EDGE_CURVE('',#319,#318,#261,.T.);
#386=EDGE_CURVE('',#319,#309,#154,.T.);
#387=EDGE_CURVE('',#308,#305,#262,.T.);
#388=EDGE_CURVE('',#304,#301,#263,.T.);
#389=EDGE_CURVE('',#300,#297,#264,.T.);
#390=EDGE_CURVE('',#320,#320,#265,.T.);
#391=EDGE_CURVE('',#321,#322,#266,.T.);
#392=EDGE_CURVE('',#322,#319,#155,.T.);
#393=EDGE_CURVE('',#318,#321,#156,.T.);
#394=EDGE_CURVE('',#323,#317,#157,.T.);
#395=EDGE_CURVE('',#321,#323,#158,.T.);
#396=EDGE_CURVE('',#324,#323,#267,.T.);
#397=EDGE_CURVE('',#316,#324,#159,.T.);
#398=EDGE_CURVE('',#315,#325,#160,.T.);
#399=EDGE_CURVE('',#324,#325,#161,.T.);
#400=EDGE_CURVE('',#298,#299,#268,.T.);
#401=EDGE_CURVE('',#326,#327,#162,.T.);
#402=EDGE_CURVE('',#326,#292,#269,.T.);
#403=EDGE_CURVE('',#291,#327,#270,.T.);
#404=EDGE_CURVE('',#282,#326,#163,.T.);
#405=EDGE_CURVE('',#302,#303,#271,.T.);
#406=EDGE_CURVE('',#328,#329,#272,.T.);
#407=EDGE_CURVE('',#284,#328,#164,.T.);
#408=EDGE_CURVE('',#329,#283,#165,.T.);
#409=EDGE_CURVE('',#328,#330,#166,.T.);
#410=EDGE_CURVE('',#330,#285,#25,.T.);
#411=EDGE_CURVE('',#306,#307,#273,.T.);
#412=EDGE_CURVE('',#331,#330,#274,.T.);
#413=EDGE_CURVE('',#286,#331,#26,.T.);
#414=EDGE_CURVE('',#332,#277,#167,.T.);
#415=EDGE_CURVE('',#332,#333,#168,.T.);
#416=EDGE_CURVE('',#333,#334,#169,.T.);
#417=EDGE_CURVE('',#331,#334,#170,.T.);
#418=EDGE_CURVE('',#335,#329,#171,.T.);
#419=EDGE_CURVE('',#335,#290,#275,.T.);
#420=EDGE_CURVE('',#327,#335,#172,.T.);
#421=EDGE_CURVE('',#334,#287,#173,.T.);
#422=EDGE_CURVE('',#320,#336,#174,.T.);
#423=EDGE_CURVE('',#336,#336,#276,.T.);
#424=EDGE_CURVE('',#289,#312,#175,.T.);
#425=EDGE_CURVE('',#313,#288,#176,.T.);
#426=EDGE_CURVE('',#337,#294,#177,.T.);
#427=EDGE_CURVE('',#337,#332,#178,.T.);
#428=EDGE_CURVE('',#310,#322,#179,.T.);
#429=EDGE_CURVE('',#325,#338,#180,.T.);
#430=EDGE_CURVE('',#310,#338,#181,.T.);
#431=EDGE_CURVE('',#338,#339,#182,.T.);
#432=EDGE_CURVE('',#339,#311,#183,.T.);
#433=EDGE_CURVE('',#333,#314,#184,.T.);
#434=EDGE_CURVE('',#339,#337,#185,.T.);
#435=ORIENTED_EDGE('',*,*,#340,.T.);
#436=ORIENTED_EDGE('',*,*,#341,.T.);
#437=ORIENTED_EDGE('',*,*,#342,.T.);
#438=ORIENTED_EDGE('',*,*,#343,.T.);
#439=ORIENTED_EDGE('',*,*,#342,.F.);
#440=ORIENTED_EDGE('',*,*,#344,.F.);
#441=ORIENTED_EDGE('',*,*,#345,.T.);
#442=ORIENTED_EDGE('',*,*,#346,.F.);
#443=ORIENTED_EDGE('',*,*,#347,.T.);
#444=ORIENTED_EDGE('',*,*,#348,.F.);
#445=ORIENTED_EDGE('',*,*,#349,.T.);
#446=ORIENTED_EDGE('',*,*,#350,.F.);
#447=ORIENTED_EDGE('',*,*,#351,.F.);
#448=ORIENTED_EDGE('',*,*,#352,.T.);
#449=ORIENTED_EDGE('',*,*,#353,.F.);
#450=ORIENTED_EDGE('',*,*,#341,.F.);
#451=ORIENTED_EDGE('',*,*,#354,.T.);
#452=ORIENTED_EDGE('',*,*,#355,.T.);
#453=ORIENTED_EDGE('',*,*,#356,.T.);
#454=ORIENTED_EDGE('',*,*,#357,.T.);
#455=ORIENTED_EDGE('',*,*,#344,.T.);
#456=ORIENTED_EDGE('',*,*,#358,.T.);
#457=ORIENTED_EDGE('',*,*,#359,.T.);
#458=ORIENTED_EDGE('',*,*,#360,.T.);
#459=ORIENTED_EDGE('',*,*,#361,.T.);
#460=ORIENTED_EDGE('',*,*,#361,.F.);
#461=ORIENTED_EDGE('',*,*,#362,.T.);
#462=ORIENTED_EDGE('',*,*,#363,.T.);
#463=ORIENTED_EDGE('',*,*,#364,.T.);
#464=ORIENTED_EDGE('',*,*,#365,.T.);
#465=ORIENTED_EDGE('',*,*,#366,.T.);
#466=ORIENTED_EDGE('',*,*,#367,.T.);
#467=ORIENTED_EDGE('',*,*,#368,.T.);
#468=ORIENTED_EDGE('',*,*,#369,.T.);
#469=ORIENTED_EDGE('',*,*,#370,.T.);
#470=ORIENTED_EDGE('',*,*,#371,.T.);
#471=ORIENTED_EDGE('',*,*,#372,.T.);
#472=ORIENTED_EDGE('',*,*,#373,.T.);
#473=ORIENTED_EDGE('',*,*,#374,.T.);
#474=ORIENTED_EDGE('',*,*,#375,.T.);
#475=ORIENTED_EDGE('',*,*,#376,.T.);
#476=ORIENTED_EDGE('',*,*,#377,.T.);
#477=ORIENTED_EDGE('',*,*,#360,.F.);
#478=ORIENTED_EDGE('',*,*,#378,.F.);
#479=ORIENTED_EDGE('',*,*,#379,.T.);
#480=ORIENTED_EDGE('',*,*,#380,.F.);
#481=ORIENTED_EDGE('',*,*,#381,.T.);
#482=ORIENTED_EDGE('',*,*,#382,.T.);
#483=ORIENTED_EDGE('',*,*,#383,.F.);
#484=ORIENTED_EDGE('',*,*,#384,.T.);
#485=ORIENTED_EDGE('',*,*,#385,.F.);
#486=ORIENTED_EDGE('',*,*,#386,.T.);
#487=ORIENTED_EDGE('',*,*,#374,.F.);
#488=ORIENTED_EDGE('',*,*,#387,.T.);
#489=ORIENTED_EDGE('',*,*,#370,.F.);
#490=ORIENTED_EDGE('',*,*,#388,.T.);
#491=ORIENTED_EDGE('',*,*,#366,.F.);
#492=ORIENTED_EDGE('',*,*,#389,.T.);
#493=ORIENTED_EDGE('',*,*,#362,.F.);
#494=ORIENTED_EDGE('',*,*,#390,.T.);
#495=ORIENTED_EDGE('',*,*,#391,.T.);
#496=ORIENTED_EDGE('',*,*,#392,.T.);
#497=ORIENTED_EDGE('',*,*,#385,.T.);
#498=ORIENTED_EDGE('',*,*,#393,.T.);
#499=ORIENTED_EDGE('',*,*,#393,.F.);
#500=ORIENTED_EDGE('',*,*,#384,.F.);
#501=ORIENTED_EDGE('',*,*,#394,.F.);
#502=ORIENTED_EDGE('',*,*,#395,.F.);
#503=ORIENTED_EDGE('',*,*,#396,.T.);
#504=ORIENTED_EDGE('',*,*,#394,.T.);
#505=ORIENTED_EDGE('',*,*,#383,.T.);
#506=ORIENTED_EDGE('',*,*,#397,.T.);
#507=ORIENTED_EDGE('',*,*,#397,.F.);
#508=ORIENTED_EDGE('',*,*,#382,.F.);
#509=ORIENTED_EDGE('',*,*,#398,.T.);
#510=ORIENTED_EDGE('',*,*,#399,.F.);
#511=ORIENTED_EDGE('',*,*,#365,.F.);
#512=ORIENTED_EDGE('',*,*,#400,.F.);
#513=ORIENTED_EDGE('',*,*,#363,.F.);
#514=ORIENTED_EDGE('',*,*,#389,.F.);
#515=ORIENTED_EDGE('',*,*,#401,.F.);
#516=ORIENTED_EDGE('',*,*,#402,.T.);
#517=ORIENTED_EDGE('',*,*,#356,.F.);
#518=ORIENTED_EDGE('',*,*,#403,.T.);
#519=ORIENTED_EDGE('',*,*,#404,.F.);
#520=ORIENTED_EDGE('',*,*,#345,.F.);
#521=ORIENTED_EDGE('',*,*,#357,.F.);
#522=ORIENTED_EDGE('',*,*,#402,.F.);
#523=ORIENTED_EDGE('',*,*,#364,.F.);
#524=ORIENTED_EDGE('',*,*,#400,.T.);
#525=ORIENTED_EDGE('',*,*,#368,.F.);
#526=ORIENTED_EDGE('',*,*,#405,.T.);
#527=ORIENTED_EDGE('',*,*,#406,.F.);
#528=ORIENTED_EDGE('',*,*,#407,.F.);
#529=ORIENTED_EDGE('',*,*,#347,.F.);
#530=ORIENTED_EDGE('',*,*,#408,.F.);
#531=ORIENTED_EDGE('',*,*,#367,.F.);
#532=ORIENTED_EDGE('',*,*,#388,.F.);
#533=ORIENTED_EDGE('',*,*,#369,.F.);
#534=ORIENTED_EDGE('',*,*,#405,.F.);
#535=ORIENTED_EDGE('',*,*,#407,.T.);
#536=ORIENTED_EDGE('',*,*,#409,.T.);
#537=ORIENTED_EDGE('',*,*,#410,.T.);
#538=ORIENTED_EDGE('',*,*,#348,.T.);
#539=ORIENTED_EDGE('',*,*,#373,.F.);
#540=ORIENTED_EDGE('',*,*,#411,.F.);
#541=ORIENTED_EDGE('',*,*,#371,.F.);
#542=ORIENTED_EDGE('',*,*,#387,.F.);
#543=ORIENTED_EDGE('',*,*,#372,.F.);
#544=ORIENTED_EDGE('',*,*,#411,.T.);
#545=ORIENTED_EDGE('',*,*,#410,.F.);
#546=ORIENTED_EDGE('',*,*,#412,.F.);
#547=ORIENTED_EDGE('',*,*,#413,.F.);
#548=ORIENTED_EDGE('',*,*,#349,.F.);
#549=ORIENTED_EDGE('',*,*,#340,.F.);
#550=ORIENTED_EDGE('',*,*,#414,.F.);
#551=ORIENTED_EDGE('',*,*,#415,.T.);
#552=ORIENTED_EDGE('',*,*,#416,.T.);
#553=ORIENTED_EDGE('',*,*,#417,.F.);
#554=ORIENTED_EDGE('',*,*,#412,.T.);
#555=ORIENTED_EDGE('',*,*,#409,.F.);
#556=ORIENTED_EDGE('',*,*,#406,.T.);
#557=ORIENTED_EDGE('',*,*,#418,.F.);
#558=ORIENTED_EDGE('',*,*,#419,.T.);
#559=ORIENTED_EDGE('',*,*,#354,.F.);
#560=ORIENTED_EDGE('',*,*,#420,.T.);
#561=ORIENTED_EDGE('',*,*,#418,.T.);
#562=ORIENTED_EDGE('',*,*,#408,.T.);
#563=ORIENTED_EDGE('',*,*,#346,.T.);
#564=ORIENTED_EDGE('',*,*,#404,.T.);
#565=ORIENTED_EDGE('',*,*,#401,.T.);
#566=ORIENTED_EDGE('',*,*,#413,.T.);
#567=ORIENTED_EDGE('',*,*,#417,.T.);
#568=ORIENTED_EDGE('',*,*,#421,.T.);
#569=ORIENTED_EDGE('',*,*,#350,.T.);
#570=ORIENTED_EDGE('',*,*,#355,.F.);
#571=ORIENTED_EDGE('',*,*,#419,.F.);
#572=ORIENTED_EDGE('',*,*,#420,.F.);
#573=ORIENTED_EDGE('',*,*,#403,.F.);
#574=ORIENTED_EDGE('',*,*,#390,.F.);
#575=ORIENTED_EDGE('',*,*,#422,.T.);
#576=ORIENTED_EDGE('',*,*,#423,.F.);
#577=ORIENTED_EDGE('',*,*,#422,.F.);
#578=ORIENTED_EDGE('',*,*,#379,.F.);
#579=ORIENTED_EDGE('',*,*,#424,.F.);
#580=ORIENTED_EDGE('',*,*,#352,.F.);
#581=ORIENTED_EDGE('',*,*,#425,.F.);
#582=ORIENTED_EDGE('',*,*,#343,.F.);
#583=ORIENTED_EDGE('',*,*,#353,.T.);
#584=ORIENTED_EDGE('',*,*,#424,.T.);
#585=ORIENTED_EDGE('',*,*,#378,.T.);
#586=ORIENTED_EDGE('',*,*,#359,.F.);
#587=ORIENTED_EDGE('',*,*,#426,.F.);
#588=ORIENTED_EDGE('',*,*,#427,.T.);
#589=ORIENTED_EDGE('',*,*,#414,.T.);
#590=ORIENTED_EDGE('',*,*,#392,.F.);
#591=ORIENTED_EDGE('',*,*,#428,.F.);
#592=ORIENTED_EDGE('',*,*,#375,.F.);
#593=ORIENTED_EDGE('',*,*,#386,.F.);
#594=ORIENTED_EDGE('',*,*,#391,.F.);
#595=ORIENTED_EDGE('',*,*,#395,.T.);
#596=ORIENTED_EDGE('',*,*,#396,.F.);
#597=ORIENTED_EDGE('',*,*,#399,.T.);
#598=ORIENTED_EDGE('',*,*,#429,.T.);
#599=ORIENTED_EDGE('',*,*,#430,.F.);
#600=ORIENTED_EDGE('',*,*,#428,.T.);
#601=ORIENTED_EDGE('',*,*,#423,.T.);
#602=ORIENTED_EDGE('',*,*,#430,.T.);
#603=ORIENTED_EDGE('',*,*,#431,.T.);
#604=ORIENTED_EDGE('',*,*,#432,.T.);
#605=ORIENTED_EDGE('',*,*,#376,.F.);
#606=ORIENTED_EDGE('',*,*,#351,.T.);
#607=ORIENTED_EDGE('',*,*,#421,.F.);
#608=ORIENTED_EDGE('',*,*,#416,.F.);
#609=ORIENTED_EDGE('',*,*,#433,.T.);
#610=ORIENTED_EDGE('',*,*,#380,.T.);
#611=ORIENTED_EDGE('',*,*,#425,.T.);
#612=ORIENTED_EDGE('',*,*,#358,.F.);
#613=ORIENTED_EDGE('',*,*,#377,.F.);
#614=ORIENTED_EDGE('',*,*,#432,.F.);
#615=ORIENTED_EDGE('',*,*,#434,.T.);
#616=ORIENTED_EDGE('',*,*,#426,.T.);
#617=ORIENTED_EDGE('',*,*,#415,.F.);
#618=ORIENTED_EDGE('',*,*,#427,.F.);
#619=ORIENTED_EDGE('',*,*,#434,.F.);
#620=ORIENTED_EDGE('',*,*,#431,.F.);
#621=ORIENTED_EDGE('',*,*,#429,.F.);
#622=ORIENTED_EDGE('',*,*,#398,.F.);
#623=ORIENTED_EDGE('',*,*,#381,.F.);
#624=ORIENTED_EDGE('',*,*,#433,.F.);
#625=CYLINDRICAL_SURFACE('',#667,2.);
#626=CYLINDRICAL_SURFACE('',#675,2.);
#627=CYLINDRICAL_SURFACE('',#686,3.);
#628=CYLINDRICAL_SURFACE('',#689,3.);
#629=CYLINDRICAL_SURFACE('',#714,1.125);
#630=CYLINDRICAL_SURFACE('',#715,2.5);
#631=ADVANCED_FACE('',(#49),#625,.T.);
#632=ADVANCED_FACE('',(#50),#27,.F.);
#633=ADVANCED_FACE('',(#51),#28,.T.);
#634=ADVANCED_FACE('',(#52),#626,.T.);
#635=ADVANCED_FACE('',(#53),#29,.T.);
#636=ADVANCED_FACE('',(#54,#21),#30,.T.);
#637=ADVANCED_FACE('',(#55),#627,.T.);
#638=ADVANCED_FACE('',(#56),#31,.T.);
#639=ADVANCED_FACE('',(#57),#628,.T.);
#640=ADVANCED_FACE('',(#58),#32,.T.);
#641=ADVANCED_FACE('',(#59),#15,.F.);
#642=ADVANCED_FACE('',(#60),#33,.T.);
#643=ADVANCED_FACE('',(#61),#16,.F.);
#644=ADVANCED_FACE('',(#62),#34,.T.);
#645=ADVANCED_FACE('',(#63),#35,.T.);
#646=ADVANCED_FACE('',(#64),#17,.F.);
#647=ADVANCED_FACE('',(#65),#18,.F.);
#648=ADVANCED_FACE('',(#66),#36,.T.);
#649=ADVANCED_FACE('',(#67),#19,.F.);
#650=ADVANCED_FACE('',(#68),#37,.T.);
#651=ADVANCED_FACE('',(#69),#20,.F.);
#652=ADVANCED_FACE('',(#70),#38,.T.);
#653=ADVANCED_FACE('',(#71),#39,.T.);
#654=ADVANCED_FACE('',(#72),#40,.T.);
#655=ADVANCED_FACE('',(#73),#629,.F.);
#656=ADVANCED_FACE('',(#74),#630,.F.);
#657=ADVANCED_FACE('',(#75),#41,.F.);
#658=ADVANCED_FACE('',(#76),#42,.T.);
#659=ADVANCED_FACE('',(#77),#43,.T.);
#660=ADVANCED_FACE('',(#78,#22),#44,.T.);
#661=ADVANCED_FACE('',(#79),#45,.T.);
#662=ADVANCED_FACE('',(#80),#46,.T.);
#663=ADVANCED_FACE('',(#81),#47,.T.);
#664=ADVANCED_FACE('',(#82),#48,.F.);
#665=CLOSED_SHELL('',(#631,#632,#633,#634,#635,#636,#637,#638,#639,#640,
#641,#642,#643,#644,#645,#646,#647,#648,#649,#650,#651,#652,#653,#654,#655,
#656,#657,#658,#659,#660,#661,#662,#663,#664));
#666=AXIS2_PLACEMENT_3D('',#910,#725,#726);
#667=AXIS2_PLACEMENT_3D('',#911,#727,#728);
#668=AXIS2_PLACEMENT_3D('',#914,#729,#730);
#669=AXIS2_PLACEMENT_3D('',#918,#732,#733);
#670=AXIS2_PLACEMENT_3D('',#920,#735,#736);
#671=AXIS2_PLACEMENT_3D('',#924,#738,#739);
#672=AXIS2_PLACEMENT_3D('',#928,#741,#742);
#673=AXIS2_PLACEMENT_3D('',#932,#744,#745);
#674=AXIS2_PLACEMENT_3D('',#940,#750,#751);
#675=AXIS2_PLACEMENT_3D('',#948,#756,#757);
#676=AXIS2_PLACEMENT_3D('',#951,#758,#759);
#677=AXIS2_PLACEMENT_3D('',#955,#761,#762);
#678=AXIS2_PLACEMENT_3D('',#957,#764,#765);
#679=AXIS2_PLACEMENT_3D('',#993,#780,#781);
#680=AXIS2_PLACEMENT_3D('',#1005,#787,#788);
#681=AXIS2_PLACEMENT_3D('',#1009,#790,#791);
#682=AXIS2_PLACEMENT_3D('',#1011,#793,#794);
#683=AXIS2_PLACEMENT_3D('',#1012,#795,#796);
#684=AXIS2_PLACEMENT_3D('',#1013,#797,#798);
#685=AXIS2_PLACEMENT_3D('',#1015,#799,#800);
#686=AXIS2_PLACEMENT_3D('',#1016,#801,#802);
#687=AXIS2_PLACEMENT_3D('',#1019,#803,#804);
#688=AXIS2_PLACEMENT_3D('',#1022,#807,#808);
#689=AXIS2_PLACEMENT_3D('',#1026,#811,#812);
#690=AXIS2_PLACEMENT_3D('',#1028,#813,#814);
#691=AXIS2_PLACEMENT_3D('',#1030,#816,#817);
#692=AXIS2_PLACEMENT_3D('',#1034,#820,#821);
#693=AXIS2_PLACEMENT_3D('',#1035,#822,#823);
#694=AXIS2_PLACEMENT_3D('',#1036,#824,#825);
#695=AXIS2_PLACEMENT_3D('',#1040,#827,#828);
#696=AXIS2_PLACEMENT_3D('',#1041,#829,#830);
#697=AXIS2_PLACEMENT_3D('',#1042,#831,#832);
#698=AXIS2_PLACEMENT_3D('',#1044,#834,#835);
#699=AXIS2_PLACEMENT_3D('',#1045,#836,#837);
#700=AXIS2_PLACEMENT_3D('',#1046,#838,#839);
#701=AXIS2_PLACEMENT_3D('',#1047,#840,#841);
#702=AXIS2_PLACEMENT_3D('',#1050,#842,#843);
#703=AXIS2_PLACEMENT_3D('',#1053,#846,#847);
#704=AXIS2_PLACEMENT_3D('',#1054,#848,#849);
#705=AXIS2_PLACEMENT_3D('',#1060,#851,#852);
#706=AXIS2_PLACEMENT_3D('',#1061,#853,#854);
#707=AXIS2_PLACEMENT_3D('',#1062,#855,#856);
#708=AXIS2_PLACEMENT_3D('',#1063,#857,#858);
#709=AXIS2_PLACEMENT_3D('',#1065,#859,#860);
#710=AXIS2_PLACEMENT_3D('',#1069,#861,#862);
#711=AXIS2_PLACEMENT_3D('',#1079,#868,#869);
#712=AXIS2_PLACEMENT_3D('',#1080,#870,#871);
#713=AXIS2_PLACEMENT_3D('',#1082,#873,#874);
#714=AXIS2_PLACEMENT_3D('',#1084,#876,#877);
#715=AXIS2_PLACEMENT_3D('',#1085,#878,#879);
#716=AXIS2_PLACEMENT_3D('',#1088,#881,#882);
#717=AXIS2_PLACEMENT_3D('',#1089,#883,#884);
#718=AXIS2_PLACEMENT_3D('',#1092,#887,#888);
#719=AXIS2_PLACEMENT_3D('',#1096,#891,#892);
#720=AXIS2_PLACEMENT_3D('',#1098,#894,#895);
#721=AXIS2_PLACEMENT_3D('',#1102,#898,#899);
#722=AXIS2_PLACEMENT_3D('',#1106,#902,#903);
#723=AXIS2_PLACEMENT_3D('',#1108,#905,#906);
#724=AXIS2_PLACEMENT_3D('',#1110,#908,#909);
#725=DIRECTION('axis',(0.,0.,1.));
#726=DIRECTION('refdir',(1.,0.,0.));
#727=DIRECTION('center_axis',(-1.,0.,0.));
#728=DIRECTION('ref_axis',(0.,0.707106781186546,0.707106781186549));
#729=DIRECTION('center_axis',(1.,0.,0.));
#730=DIRECTION('ref_axis',(0.,0.707106781186546,0.707106781186549));
#731=DIRECTION('',(1.,0.,0.));
#732=DIRECTION('center_axis',(-1.,-7.79103876929934E-17,0.));
#733=DIRECTION('ref_axis',(0.,0.707106781186546,0.707106781186549));
#734=DIRECTION('',(-1.,0.,0.));
#735=DIRECTION('center_axis',(-1.,-7.79103876929934E-17,0.));
#736=DIRECTION('ref_axis',(-7.79103876929934E-17,1.,0.));
#737=DIRECTION('',(-7.79103876929934E-17,1.,0.));
#738=DIRECTION('center_axis',(-1.,-7.79103876929934E-17,0.));
#739=DIRECTION('ref_axis',(-1.22727336632443E-91,-2.86524314533399E-31,
1.));
#740=DIRECTION('',(-7.79103876929934E-17,1.,0.));
#741=DIRECTION('center_axis',(-1.,-7.79103876929934E-17,0.));
#742=DIRECTION('ref_axis',(-3.19189119579732E-16,0.,1.));
#743=DIRECTION('',(-7.79103876929934E-17,1.,0.));
#744=DIRECTION('center_axis',(-1.,-7.79103876929934E-17,0.));
#745=DIRECTION('ref_axis',(-1.30454085305476E-15,-4.26515003340987E-25,
1.));
#746=DIRECTION('',(-7.79103876929934E-17,1.,0.));
#747=DIRECTION('',(0.,0.,1.));
#748=DIRECTION('',(-7.79103876929934E-17,1.,0.));
#749=DIRECTION('',(0.,0.,-1.));
#750=DIRECTION('center_axis',(0.,0.,1.));
#751=DIRECTION('ref_axis',(1.,0.,0.));
#752=DIRECTION('',(0.,-1.,0.));
#753=DIRECTION('',(1.,0.,0.));
#754=DIRECTION('',(0.,-1.,0.));
#755=DIRECTION('',(0.999039549861211,-0.0438175514275798,0.));
#756=DIRECTION('center_axis',(-1.,0.,0.));
#757=DIRECTION('ref_axis',(0.,0.707106781186546,0.707106781186549));
#758=DIRECTION('center_axis',(-1.,0.,0.));
#759=DIRECTION('ref_axis',(0.,0.707106781186546,0.707106781186549));
#760=DIRECTION('',(-1.,0.,0.));
#761=DIRECTION('center_axis',(1.,0.,3.19189119579732E-16));
#762=DIRECTION('ref_axis',(0.,0.707106781186546,0.707106781186549));
#763=DIRECTION('',(1.,0.,0.));
#764=DIRECTION('center_axis',(0.,0.,1.));
#765=DIRECTION('ref_axis',(1.,0.,0.));
#766=DIRECTION('',(7.79103876929934E-17,-1.,0.));
#767=DIRECTION('',(0.999039547750985,-0.0438175995406741,0.));
#768=DIRECTION('',(0.,-1.,0.));
#769=DIRECTION('',(-0.999039547750985,-0.0438175995406741,0.));
#770=DIRECTION('',(7.79103876929934E-17,-1.,0.));
#771=DIRECTION('',(0.998213546450309,-0.0597470976960018,0.));
#772=DIRECTION('',(0.,-1.,0.));
#773=DIRECTION('',(-0.998213546450309,-0.0597470976960018,0.));
#774=DIRECTION('',(7.79103876929934E-17,-1.,0.));
#775=DIRECTION('',(3.3881317890172E-21,-1.,0.));
#776=DIRECTION('',(7.79103876929934E-17,-1.,0.));
#777=DIRECTION('',(1.,-4.1086505480261E-33,0.));
#778=DIRECTION('',(1.,-4.1086505480261E-33,0.));
#779=DIRECTION('',(0.,1.,0.));
#780=DIRECTION('center_axis',(-1.,0.,-3.19189119579732E-16));
#781=DIRECTION('ref_axis',(0.,-1.,0.));
#782=DIRECTION('',(0.,0.,1.));
#783=DIRECTION('',(7.79103876929934E-17,-1.,0.));
#784=DIRECTION('',(-3.19189119579732E-16,1.31143655108524E-48,1.));
#785=DIRECTION('',(0.,-1.,0.));
#786=DIRECTION('',(-3.19189119579732E-16,0.,1.));
#787=DIRECTION('center_axis',(1.,0.,3.19189119579732E-16));
#788=DIRECTION('ref_axis',(0.,-0.707106781186547,0.707106781186547));
#789=DIRECTION('',(0.,1.,0.));
#790=DIRECTION('center_axis',(1.,0.,3.19189119579732E-16));
#791=DIRECTION('ref_axis',(0.,0.707106781186548,0.707106781186547));
#792=DIRECTION('',(3.19189119579732E-16,0.,-1.));
#793=DIRECTION('center_axis',(1.,0.,3.19189119579732E-16));
#794=DIRECTION('ref_axis',(-1.30454085305476E-15,-4.26515003340987E-25,
1.));
#795=DIRECTION('center_axis',(1.,0.,3.19189119579732E-16));
#796=DIRECTION('ref_axis',(-3.19189119579732E-16,0.,1.));
#797=DIRECTION('center_axis',(1.,0.,3.19189119579732E-16));
#798=DIRECTION('ref_axis',(-1.22727336632443E-91,-2.86524314533399E-31,
1.));
#799=DIRECTION('center_axis',(1.,0.,3.19189119579732E-16));
#800=DIRECTION('ref_axis',(0.,-1.,0.));
#801=DIRECTION('center_axis',(1.,0.,3.16392996473399E-16));
#802=DIRECTION('ref_axis',(0.,0.707106781186548,0.707106781186547));
#803=DIRECTION('center_axis',(-1.,0.,-3.16392996473399E-16));
#804=DIRECTION('ref_axis',(0.,0.707106781186548,0.707106781186547));
#805=DIRECTION('',(-1.,0.,-3.16392996473399E-16));
#806=DIRECTION('',(1.,0.,3.16392996473399E-16));
#807=DIRECTION('center_axis',(-3.16392996473399E-16,0.,1.));
#808=DIRECTION('ref_axis',(0.,-1.,0.));
#809=DIRECTION('',(-1.,0.,-3.16392996473399E-16));
#810=DIRECTION('',(0.,-1.,0.));
#811=DIRECTION('center_axis',(1.,0.,3.16392996473399E-16));
#812=DIRECTION('ref_axis',(0.,-0.707106781186547,0.707106781186547));
#813=DIRECTION('center_axis',(-1.,0.,-3.16392996473399E-16));
#814=DIRECTION('ref_axis',(0.,-0.707106781186547,0.707106781186547));
#815=DIRECTION('',(1.,0.,3.16392996473399E-16));
#816=DIRECTION('center_axis',(0.,-1.,0.));
#817=DIRECTION('ref_axis',(3.19189119579732E-16,0.,-1.));
#818=DIRECTION('',(1.,0.,3.16392996473399E-16));
#819=DIRECTION('',(3.19189119579732E-16,0.,-1.));
#820=DIRECTION('center_axis',(-1.,0.,-1.22727336632443E-91));
#821=DIRECTION('ref_axis',(1.22727336632443E-91,-1.22464679914735E-16,-1.));
#822=DIRECTION('center_axis',(-1.,0.,-1.22727336632443E-91));
#823=DIRECTION('ref_axis',(-1.22727336632443E-91,-2.86524314533399E-31,
1.));
#824=DIRECTION('center_axis',(-1.,0.,-1.22727336632443E-91));
#825=DIRECTION('ref_axis',(-1.22727336632443E-91,-2.86524314533399E-31,
1.));
#826=DIRECTION('',(0.,-1.,0.));
#827=DIRECTION('center_axis',(1.,0.,1.22727336632443E-91));
#828=DIRECTION('ref_axis',(-1.22727336632443E-91,-2.86524314533399E-31,
1.));
#829=DIRECTION('center_axis',(-1.,0.,-1.22727336632443E-91));
#830=DIRECTION('ref_axis',(-1.22727336632443E-91,-2.86524314533399E-31,
1.));
#831=DIRECTION('center_axis',(-1.,0.,-1.22727336632443E-91));
#832=DIRECTION('ref_axis',(1.22727336632443E-91,-1.22464679914735E-16,-1.));
#833=DIRECTION('',(-0.999039549861211,-0.0438175514275798,0.));
#834=DIRECTION('center_axis',(-1.,0.,-1.22727336632443E-91));
#835=DIRECTION('ref_axis',(-1.22727336632443E-91,-2.86524314533399E-31,
1.));
#836=DIRECTION('center_axis',(-1.,0.,-3.19189119579732E-16));
#837=DIRECTION('ref_axis',(-3.19189119579732E-16,0.,1.));
#838=DIRECTION('center_axis',(-1.,0.,-3.19189119579732E-16));
#839=DIRECTION('ref_axis',(-3.19189119579732E-16,0.,1.));
#840=DIRECTION('center_axis',(-1.,0.,-3.19189119579732E-16));
#841=DIRECTION('ref_axis',(3.19189119579732E-16,-1.22464679914735E-16,-1.));
#842=DIRECTION('center_axis',(1.,0.,0.));
#843=DIRECTION('ref_axis',(-3.19189119579732E-16,0.,1.));
#844=DIRECTION('',(-0.998213546861897,-0.0597470908194894,0.));
#845=DIRECTION('',(0.998213546861897,-0.0597470908194894,0.));
#846=DIRECTION('center_axis',(-1.,0.,-3.19189119579732E-16));
#847=DIRECTION('ref_axis',(3.19189119579732E-16,1.22464679914735E-16,-1.));
#848=DIRECTION('center_axis',(0.,0.,1.));
#849=DIRECTION('ref_axis',(1.,0.,0.));
#850=DIRECTION('',(0.,-1.,0.));
#851=DIRECTION('center_axis',(-1.,-3.3881317890172E-21,-1.30454085305476E-15));
#852=DIRECTION('ref_axis',(1.30454085305476E-15,-1.2246467948822E-16,-1.));
#853=DIRECTION('center_axis',(-1.,-3.3881317890172E-21,-1.30454085305476E-15));
#854=DIRECTION('ref_axis',(-1.30454085305476E-15,-4.26515003340987E-25,
1.));
#855=DIRECTION('center_axis',(-1.,-3.3881317890172E-21,-1.30454085305476E-15));
#856=DIRECTION('ref_axis',(-1.30454085305476E-15,-4.26515003340987E-25,
1.));
#857=DIRECTION('center_axis',(-1.,-3.3881317890172E-21,-1.30454085305476E-15));
#858=DIRECTION('ref_axis',(1.30454085305476E-15,1.2246468034125E-16,-1.));
#859=DIRECTION('center_axis',(1.,0.,0.));
#860=DIRECTION('ref_axis',(-1.30454085305476E-15,-4.26515003340987E-25,
1.));
#861=DIRECTION('center_axis',(-1.,0.,0.));
#862=DIRECTION('ref_axis',(0.,-1.,0.));
#863=DIRECTION('',(0.,0.,1.));
#864=DIRECTION('',(0.,-1.,0.));
#865=DIRECTION('',(0.,0.,1.));
#866=DIRECTION('',(0.,-1.,0.));
#867=DIRECTION('',(0.,-1.,0.));
#868=DIRECTION('center_axis',(1.,0.,0.));
#869=DIRECTION('ref_axis',(0.,-2.86524314533399E-31,1.));
#870=DIRECTION('center_axis',(0.,0.,1.));
#871=DIRECTION('ref_axis',(1.,0.,0.));
#872=DIRECTION('',(-1.,0.,0.));
#873=DIRECTION('center_axis',(0.,0.,1.));
#874=DIRECTION('ref_axis',(1.,0.,0.));
#875=DIRECTION('',(1.,-4.1086505480261E-33,0.));
#876=DIRECTION('center_axis',(-1.,0.,0.));
#877=DIRECTION('ref_axis',(0.,1.22464679914736E-16,-1.));
#878=DIRECTION('center_axis',(1.,0.,3.16392996473399E-16));
#879=DIRECTION('ref_axis',(0.,-1.,0.));
#880=DIRECTION('',(1.,0.,3.16392996473399E-16));
#881=DIRECTION('center_axis',(-1.,0.,-3.16392996473399E-16));
#882=DIRECTION('ref_axis',(0.,-1.,0.));
#883=DIRECTION('center_axis',(0.,0.,-1.));
#884=DIRECTION('ref_axis',(-1.,0.,0.));
#885=DIRECTION('',(1.,0.,0.));
#886=DIRECTION('',(-1.,4.1086505480261E-33,0.));
#887=DIRECTION('center_axis',(0.,1.,0.));
#888=DIRECTION('ref_axis',(-1.,0.,0.));
#889=DIRECTION('',(0.,0.,1.));
#890=DIRECTION('',(-1.,0.,0.));
#891=DIRECTION('center_axis',(0.,1.,0.));
#892=DIRECTION('ref_axis',(-3.19189119579732E-16,0.,1.));
#893=DIRECTION('',(-3.19189119579732E-16,0.,1.));
#894=DIRECTION('center_axis',(1.,0.,3.16392996473399E-16));
#895=DIRECTION('ref_axis',(3.16392996473399E-16,0.,-1.));
#896=DIRECTION('',(0.,1.,0.));
#897=DIRECTION('',(3.16392996473399E-16,-1.29994825835205E-48,-1.));
#898=DIRECTION('center_axis',(-4.1086505480261E-33,-1.,0.));
#899=DIRECTION('ref_axis',(1.,-4.1086505480261E-33,0.));
#900=DIRECTION('',(1.,-4.1086505480261E-33,0.));
#901=DIRECTION('',(0.,0.,1.));
#902=DIRECTION('center_axis',(-4.1086505480261E-33,-1.,0.));
#903=DIRECTION('ref_axis',(1.,-4.1086505480261E-33,0.));
#904=DIRECTION('',(1.,-4.1086505480261E-33,0.));
#905=DIRECTION('center_axis',(1.,0.,0.));
#906=DIRECTION('ref_axis',(0.,1.,0.));
#907=DIRECTION('',(0.,1.,0.));
#908=DIRECTION('center_axis',(0.,0.,1.));
#909=DIRECTION('ref_axis',(1.,0.,0.));
#910=CARTESIAN_POINT('',(0.,0.,0.));
#911=CARTESIAN_POINT('Origin',(22.5,55.,8.));
#912=CARTESIAN_POINT('',(0.,57.,8.));
#913=CARTESIAN_POINT('',(0.,55.,10.));
#914=CARTESIAN_POINT('Origin',(0.,55.,8.));
#915=CARTESIAN_POINT('',(15.4636432394097,55.,10.));
#916=CARTESIAN_POINT('',(22.5,55.,10.));
#917=CARTESIAN_POINT('',(15.4636432394097,57.,8.));
#918=CARTESIAN_POINT('Origin',(15.4636432394097,55.,8.));
#919=CARTESIAN_POINT('',(22.5,57.,8.));
#920=CARTESIAN_POINT('Origin',(15.4636432394097,0.,10.));
#921=CARTESIAN_POINT('',(15.4636432394097,43.6162274468895,10.));
#922=CARTESIAN_POINT('',(15.4636432394097,14.25,10.));
#923=CARTESIAN_POINT('',(15.4636432394097,42.3837725531105,10.));
#924=CARTESIAN_POINT('Origin',(15.4636432394097,43.,9.99912354568045));
#925=CARTESIAN_POINT('',(15.4636432394097,29.8291970035442,10.));
#926=CARTESIAN_POINT('',(15.4636432394097,14.25,10.));
#927=CARTESIAN_POINT('',(15.4636432394097,28.1708029964558,10.));
#928=CARTESIAN_POINT('Origin',(15.4636432394097,29.,9.99964323940965));
#929=CARTESIAN_POINT('',(15.4636432394097,16.1823834630104,10.));
#930=CARTESIAN_POINT('',(15.4636432394097,14.25,10.));
#931=CARTESIAN_POINT('',(15.4636432394097,13.8176165369896,10.));
#932=CARTESIAN_POINT('Origin',(15.4636432394097,15.,9.98689007044143));
#933=CARTESIAN_POINT('',(15.4636432394097,0.,10.));
#934=CARTESIAN_POINT('',(15.4636432394097,14.25,10.));
#935=CARTESIAN_POINT('',(15.4636432394097,0.,4.));
#936=CARTESIAN_POINT('',(15.4636432394097,-1.23259516440783E-31,5.));
#937=CARTESIAN_POINT('',(15.4636432394097,57.,4.));
#938=CARTESIAN_POINT('',(15.4636432394097,0.,4.));
#939=CARTESIAN_POINT('',(15.4636432394097,57.,5.));
#940=CARTESIAN_POINT('Origin',(15.,28.5,10.));
#941=CARTESIAN_POINT('',(0.,44.1249996585901,10.));
#942=CARTESIAN_POINT('',(0.,57.,10.));
#943=CARTESIAN_POINT('',(6.71364323940966,44.1249996585901,10.));
#944=CARTESIAN_POINT('',(0.713643239409656,44.1249996585901,10.));
#945=CARTESIAN_POINT('',(6.71364323940966,43.9999996159138,10.));
#946=CARTESIAN_POINT('',(6.71364323940966,35.75,10.));
#947=CARTESIAN_POINT('',(11.0886432394097,43.8081135314017,10.));
#948=CARTESIAN_POINT('Origin',(22.5,55.,8.));
#949=CARTESIAN_POINT('',(30.,55.,10.));
#950=CARTESIAN_POINT('',(30.,57.,8.));
#951=CARTESIAN_POINT('Origin',(30.,55.,8.));
#952=CARTESIAN_POINT('',(15.9636432394097,57.,8.));
#953=CARTESIAN_POINT('',(22.5,57.,8.));
#954=CARTESIAN_POINT('',(15.9636432394097,55.,10.));
#955=CARTESIAN_POINT('Origin',(15.9636432394097,55.,8.));
#956=CARTESIAN_POINT('',(22.5,55.,10.));
#957=CARTESIAN_POINT('Origin',(15.,28.5,10.));
#958=CARTESIAN_POINT('',(15.9636432394097,43.5942975993286,10.));
#959=CARTESIAN_POINT('',(15.9636432394097,42.75,10.));
#960=CARTESIAN_POINT('',(20.9636432394097,43.374998975769,10.));
#961=CARTESIAN_POINT('',(18.4636432394097,43.4846482875488,10.));
#962=CARTESIAN_POINT('',(20.9636432394097,42.625001024231,10.));
#963=CARTESIAN_POINT('',(20.9636432394097,35.75,10.));
#964=CARTESIAN_POINT('',(15.9636432394097,42.4057024006714,10.));
#965=CARTESIAN_POINT('',(18.4636432394097,42.5153517124512,10.));
#966=CARTESIAN_POINT('',(15.9636432394097,29.7992699933712,10.));
#967=CARTESIAN_POINT('',(15.9636432394097,42.75,10.));
#968=CARTESIAN_POINT('',(20.9636432394097,29.4999998727219,10.));
#969=CARTESIAN_POINT('',(18.4636432394097,29.6496349330465,10.));
#970=CARTESIAN_POINT('',(20.9636432394097,28.5000001272781,10.));
#971=CARTESIAN_POINT('',(20.9636432394097,28.75,10.));
#972=CARTESIAN_POINT('',(15.9636432394097,28.2007300066288,10.));
#973=CARTESIAN_POINT('',(18.4636432394097,28.3503650669535,10.));
#974=CARTESIAN_POINT('',(15.9636432394097,16.1385210141161,10.));
#975=CARTESIAN_POINT('',(15.9636432394097,42.75,10.));
#976=CARTESIAN_POINT('',(20.9636432394097,15.6998772247666,10.));
#977=CARTESIAN_POINT('Ctrl Pts',(15.9636432394097,16.1385210141161,10.));
#978=CARTESIAN_POINT('Ctrl Pts',(19.0601459177183,15.8668799651812,10.));
#979=CARTESIAN_POINT('Ctrl Pts',(20.9636432394097,15.6998772247666,10.));
#980=CARTESIAN_POINT('',(20.9636432394097,14.3001227752334,10.));
#981=CARTESIAN_POINT('',(20.9636432394097,21.75,10.));
#982=CARTESIAN_POINT('',(15.9636432394097,13.8614789858839,10.));
#983=CARTESIAN_POINT('Ctrl Pts',(20.9636432394097,14.3001227752334,10.));
#984=CARTESIAN_POINT('Ctrl Pts',(19.0601459177183,14.1331200348188,10.));
#985=CARTESIAN_POINT('Ctrl Pts',(15.9636432394097,13.8614789858839,10.));
#986=CARTESIAN_POINT('',(15.9636432394097,0.,10.));
#987=CARTESIAN_POINT('',(15.9636432394097,42.75,10.));
#988=CARTESIAN_POINT('',(22.9816432394097,0.,10.));
#989=CARTESIAN_POINT('',(0.,0.,10.));
#990=CARTESIAN_POINT('',(30.,0.,10.));
#991=CARTESIAN_POINT('',(0.,0.,10.));
#992=CARTESIAN_POINT('',(30.,-1.23259516440783E-31,10.));
#993=CARTESIAN_POINT('Origin',(15.9636432394097,-7.,9.00000007450581));
#994=CARTESIAN_POINT('',(15.9636432394097,57.,4.));
#995=CARTESIAN_POINT('',(15.9636432394097,57.,5.));
#996=CARTESIAN_POINT('',(15.9636432394097,0.,4.));
#997=CARTESIAN_POINT('',(15.9636432394097,0.,4.));
#998=CARTESIAN_POINT('',(15.9636432394097,0.,5.09542123087212E-15));
#999=CARTESIAN_POINT('',(15.9636432394097,0.,4.50000003725291));
#1000=CARTESIAN_POINT('',(15.9636432394097,-14.,5.09542123087212E-15));
#1001=CARTESIAN_POINT('',(15.9636432394097,0.,5.09542123087212E-15));
#1002=CARTESIAN_POINT('',(15.9636432394097,-14.,15.0000001490116));
#1003=CARTESIAN_POINT('',(15.9636432394097,-14.,5.09542123087212E-15));
#1004=CARTESIAN_POINT('',(15.9636432394097,-11.,18.0000001490116));
#1005=CARTESIAN_POINT('Origin',(15.9636432394097,-11.,15.0000001490116));
#1006=CARTESIAN_POINT('',(15.9636432394097,-3.,18.0000001490116));
#1007=CARTESIAN_POINT('',(15.9636432394097,-14.,18.0000001490116));
#1008=CARTESIAN_POINT('',(15.9636432394097,0.,15.0000001490116));
#1009=CARTESIAN_POINT('Origin',(15.9636432394097,-3.,15.0000001490116));
#1010=CARTESIAN_POINT('',(15.9636432394097,0.,4.00000014901162));
#1011=CARTESIAN_POINT('Origin',(15.9636432394097,15.,9.98689007044143));
#1012=CARTESIAN_POINT('Origin',(15.9636432394097,29.,9.99964323940965));
#1013=CARTESIAN_POINT('Origin',(15.9636432394097,43.,9.99912354568045));
#1014=CARTESIAN_POINT('',(15.9636432394097,-6.9707247032113,14.0006796051634));
#1015=CARTESIAN_POINT('Origin',(15.9636432394097,-9.4707247032113,14.0006796051634));
#1016=CARTESIAN_POINT('Origin',(15.9636432394097,-3.,15.0000001490116));
#1017=CARTESIAN_POINT('',(22.9816432394097,-3.,18.0000001490116));
#1018=CARTESIAN_POINT('',(22.9816432394097,0.,15.0000001490116));
#1019=CARTESIAN_POINT('Origin',(22.9816432394097,-3.,15.0000001490116));
#1020=CARTESIAN_POINT('',(15.9636432394097,0.,15.0000001490116));
#1021=CARTESIAN_POINT('',(15.9636432394097,-3.,18.0000001490116));
#1022=CARTESIAN_POINT('Origin',(15.9636432394097,0.,18.0000001490116));
#1023=CARTESIAN_POINT('',(22.9816432394097,-11.,18.0000001490116));
#1024=CARTESIAN_POINT('',(15.9636432394097,-11.,18.0000001490116));
#1025=CARTESIAN_POINT('',(22.9816432394097,-14.,18.0000001490116));
#1026=CARTESIAN_POINT('Origin',(15.9636432394097,-11.,15.0000001490116));
#1027=CARTESIAN_POINT('',(22.9816432394097,-14.,15.0000001490116));
#1028=CARTESIAN_POINT('Origin',(22.9816432394097,-11.,15.0000001490116));
#1029=CARTESIAN_POINT('',(15.9636432394097,-14.,15.0000001490116));
#1030=CARTESIAN_POINT('Origin',(15.9636432394097,-14.,18.0000001490116));
#1031=CARTESIAN_POINT('',(22.9816432394097,-14.,6.66133814775094E-15));
#1032=CARTESIAN_POINT('',(15.9636432394097,-14.,5.09542123087212E-15));
#1033=CARTESIAN_POINT('',(22.9816432394097,-14.,7.31586728012243E-15));
#1034=CARTESIAN_POINT('Origin',(6.71364323940966,43.,9.99912354568045));
#1035=CARTESIAN_POINT('Origin',(20.9636432394097,43.,9.99912354568045));
#1036=CARTESIAN_POINT('Origin',(6.71364323940966,43.,9.99912354568045));
#1037=CARTESIAN_POINT('',(6.71364323940966,42.0000003840862,10.));
#1038=CARTESIAN_POINT('',(6.71364323940966,41.8750003414099,10.));
#1039=CARTESIAN_POINT('',(6.71364323940966,35.75,10.));
#1040=CARTESIAN_POINT('Origin',(6.71364323940966,43.,9.99912354568045));
#1041=CARTESIAN_POINT('Origin',(6.71364323940966,43.,9.99912354568045));
#1042=CARTESIAN_POINT('Origin',(6.71364323940966,43.,9.99912354568045));
#1043=CARTESIAN_POINT('',(11.0886432394097,42.1918864685983,10.));
#1044=CARTESIAN_POINT('Origin',(20.9636432394097,43.,9.99912354568045));
#1045=CARTESIAN_POINT('Origin',(20.9636432394097,29.,9.99964323940965));
#1046=CARTESIAN_POINT('Origin',(20.9636432394097,29.,9.99964323940965));
#1047=CARTESIAN_POINT('Origin',(-13.2863567605903,29.,9.99964323940964));
#1048=CARTESIAN_POINT('',(2.22044604925031E-15,27.2452418277764,10.));
#1049=CARTESIAN_POINT('',(2.22044604925031E-15,30.7547581722236,10.));
#1050=CARTESIAN_POINT('Origin',(-2.22044604925031E-15,29.,9.99964323940965));
#1051=CARTESIAN_POINT('',(7.73182161970483,27.7080224121161,10.));
#1052=CARTESIAN_POINT('',(7.73182161970483,30.2919775878839,10.));
#1053=CARTESIAN_POINT('Origin',(-13.2863567605903,29.,9.99964323940964));
#1054=CARTESIAN_POINT('Origin',(15.,28.5,10.));
#1055=CARTESIAN_POINT('',(-2.22044604925031E-15,17.5388822262358,10.));
#1056=CARTESIAN_POINT('',(0.,57.,10.));
#1057=CARTESIAN_POINT('Ctrl Pts',(-2.22044604925031E-15,17.5388822262358,
10.));
#1058=CARTESIAN_POINT('Ctrl Pts',(10.5502730124958,16.6134073433711,10.));
#1059=CARTESIAN_POINT('Ctrl Pts',(15.4636432394097,16.1823834630104,10.));
#1060=CARTESIAN_POINT('Origin',(-7.53635676059034,15.,9.9868900704414));
#1061=CARTESIAN_POINT('Origin',(20.9636432394097,15.,9.98689007044144));
#1062=CARTESIAN_POINT('Origin',(20.9636432394097,15.,9.98689007044144));
#1063=CARTESIAN_POINT('Origin',(-7.53635676059034,15.,9.9868900704414));
#1064=CARTESIAN_POINT('',(-2.22044604925031E-15,12.4611177737642,10.));
#1065=CARTESIAN_POINT('Origin',(-1.33226762955019E-14,15.,9.98689007044141));
#1066=CARTESIAN_POINT('Ctrl Pts',(15.4636432394097,13.8176165369896,10.));
#1067=CARTESIAN_POINT('Ctrl Pts',(10.5502730124958,13.386592656629,10.));
#1068=CARTESIAN_POINT('Ctrl Pts',(-2.22044604925031E-15,12.4611177737642,
10.));
#1069=CARTESIAN_POINT('Origin',(0.,57.,0.));
#1070=CARTESIAN_POINT('',(0.,57.,0.));
#1071=CARTESIAN_POINT('',(0.,57.,0.));
#1072=CARTESIAN_POINT('',(0.,0.,0.));
#1073=CARTESIAN_POINT('',(0.,57.,0.));
#1074=CARTESIAN_POINT('',(0.,0.,10.));
#1075=CARTESIAN_POINT('',(0.,0.,0.));
#1076=CARTESIAN_POINT('',(0.,57.,10.));
#1077=CARTESIAN_POINT('',(0.,41.8750003414099,10.));
#1078=CARTESIAN_POINT('',(0.,57.,10.));
#1079=CARTESIAN_POINT('Origin',(0.,43.,9.99912354568045));
#1080=CARTESIAN_POINT('Origin',(15.,28.5,10.));
#1081=CARTESIAN_POINT('',(0.713643239409656,41.8750003414099,10.));
#1082=CARTESIAN_POINT('Origin',(15.,28.5,10.));
#1083=CARTESIAN_POINT('',(0.,0.,10.));
#1084=CARTESIAN_POINT('Origin',(0.713643239409656,43.,9.99912354568045));
#1085=CARTESIAN_POINT('Origin',(15.9636432394097,-9.4707247032113,14.0006796051634));
#1086=CARTESIAN_POINT('',(22.9816432394097,-6.9707247032113,14.0006796051634));
#1087=CARTESIAN_POINT('',(15.9636432394097,-6.9707247032113,14.0006796051634));
#1088=CARTESIAN_POINT('Origin',(22.9816432394097,-9.4707247032113,14.0006796051634));
#1089=CARTESIAN_POINT('Origin',(15.7136432394097,28.5,4.));
#1090=CARTESIAN_POINT('',(22.8568216197048,57.,4.));
#1091=CARTESIAN_POINT('',(7.85682161970483,0.,4.));
#1092=CARTESIAN_POINT('Origin',(30.,57.,0.));
#1093=CARTESIAN_POINT('',(30.,57.,0.));
#1094=CARTESIAN_POINT('',(30.,57.,0.));
#1095=CARTESIAN_POINT('',(30.,57.,0.));
#1096=CARTESIAN_POINT('Origin',(15.9636432394097,0.,4.9960036108132E-15));
#1097=CARTESIAN_POINT('',(22.9816432394097,0.,4.00000014901162));
#1098=CARTESIAN_POINT('Origin',(22.9816432394097,-7.,9.00000007450581));
#1099=CARTESIAN_POINT('',(22.9816432394097,0.,6.66133814775094E-15));
#1100=CARTESIAN_POINT('',(22.9816432394097,0.,7.31586728012243E-15));
#1101=CARTESIAN_POINT('',(22.9816432394097,0.,4.50000003725291));
#1102=CARTESIAN_POINT('Origin',(0.,0.,0.));
#1103=CARTESIAN_POINT('',(30.,-1.23259516440783E-31,0.));
#1104=CARTESIAN_POINT('',(0.,0.,0.));
#1105=CARTESIAN_POINT('',(30.,-1.23259516440783E-31,0.));
#1106=CARTESIAN_POINT('Origin',(0.,0.,0.));
#1107=CARTESIAN_POINT('',(0.,0.,0.));
#1108=CARTESIAN_POINT('Origin',(30.,-1.23259516440783E-31,0.));
#1109=CARTESIAN_POINT('',(30.,-1.23259516440783E-31,0.));
#1110=CARTESIAN_POINT('Origin',(15.,28.5,0.));
#1111=UNCERTAINTY_MEASURE_WITH_UNIT(LENGTH_MEASURE(0.01),#1115,
'DISTANCE_ACCURACY_VALUE',
'Maximum model space distance between geometric entities at asserted c
onnectivities');
#1112=UNCERTAINTY_MEASURE_WITH_UNIT(LENGTH_MEASURE(0.01),#1115,
'DISTANCE_ACCURACY_VALUE',
'Maximum model space distance between geometric entities at asserted c
onnectivities');
#1113=(
GEOMETRIC_REPRESENTATION_CONTEXT(3)
GLOBAL_UNCERTAINTY_ASSIGNED_CONTEXT((#1111))
GLOBAL_UNIT_ASSIGNED_CONTEXT((#1115,#1116,#1117))
REPRESENTATION_CONTEXT('','3D')
);
#1114=(
GEOMETRIC_REPRESENTATION_CONTEXT(3)
GLOBAL_UNCERTAINTY_ASSIGNED_CONTEXT((#1112))
GLOBAL_UNIT_ASSIGNED_CONTEXT((#1115,#1116,#1117))
REPRESENTATION_CONTEXT('','3D')
);
#1115=(
LENGTH_UNIT()
NAMED_UNIT(*)
SI_UNIT(.MILLI.,.METRE.)
);
#1116=(
NAMED_UNIT(*)
PLANE_ANGLE_UNIT()
SI_UNIT($,.RADIAN.)
);
#1117=(
NAMED_UNIT(*)
SI_UNIT($,.STERADIAN.)
SOLID_ANGLE_UNIT()
);
#1118=SHAPE_DEFINITION_REPRESENTATION(#1119,#1120);
#1119=PRODUCT_DEFINITION_SHAPE('',$,#1122);
#1120=SHAPE_REPRESENTATION('',(#666),#1113);
#1121=PRODUCT_DEFINITION_CONTEXT('part definition',#1126,'design');
#1122=PRODUCT_DEFINITION('cutter_version2','cutter_version2 v3',#1123,#1121);
#1123=PRODUCT_DEFINITION_FORMATION('',$,#1128);
#1124=PRODUCT_RELATED_PRODUCT_CATEGORY('cutter_version2 v3',
'cutter_version2 v3',(#1128));
#1125=APPLICATION_PROTOCOL_DEFINITION('international standard',
'ap242_managed_model_based_3d_engineering',2011,#1126);
#1126=APPLICATION_CONTEXT('Managed model based 3d engineering');
#1127=PRODUCT_CONTEXT('part definition',#1126,'mechanical');
#1128=PRODUCT('cutter_version2','cutter_version2 v3',$,(#1127));
#1129=PRESENTATION_STYLE_ASSIGNMENT((#1130));
#1130=SURFACE_STYLE_USAGE(.BOTH.,#1131);
#1131=SURFACE_SIDE_STYLE('',(#1132));
#1132=SURFACE_STYLE_FILL_AREA(#1133);
#1133=FILL_AREA_STYLE('Stahl - satiniert',(#1134));
#1134=FILL_AREA_STYLE_COLOUR('Stahl - satiniert',#1135);
#1135=COLOUR_RGB('Stahl - satiniert',0.627450980392157,0.627450980392157,
0.627450980392157);
ENDSEC;
END-ISO-10303-21;
