ISO-10303-21;
HEADER;
/* Generated by software containing ST-Developer
 * from STEP Tools, Inc. (www.steptools.com) 
 */

FILE_DESCRIPTION(
/* description */ ('',
'CAx-IF Rec.Pracs.---Representation and Presentation of Product Manufa
cturing Information (PMI)---4.0---2014-10-13'),
/* implementation_level */ '2;1');

FILE_NAME(
/* name */ 'protection.step',
/* time_stamp */ '2025-04-10T16:28:23+02:00',
/* author */ (''),
/* organization */ (''),
/* preprocessor_version */ 'ST-DEVELOPER v20',
/* originating_system */ 'Autodesk Translation Framework v13.20.0.188',

/* authorisation */ '');

FILE_SCHEMA (('AP242_MANAGED_MODEL_BASED_3D_ENGINEERING_MIM_LF { 1 0 10303 442 1 1 4 }'));
ENDSEC;

DATA;
#10=MECHANICAL_DESIGN_GEOMETRIC_PRESENTATION_REPRESENTATION('',(#13),#325);
#11=SHAPE_REPRESENTATION_RELATIONSHIP('SRR','None',#332,#12);
#12=ADVANCED_BREP_SHAPE_REPRESENTATION('',(#14),#324);
#13=STYLED_ITEM('',(#341),#14);
#14=MANIFOLD_SOLID_BREP('K\X\F6rper1',#197);
#15=FACE_BOUND('',#37,.T.);
#16=FACE_OUTER_BOUND('',#27,.T.);
#17=FACE_OUTER_BOUND('',#28,.T.);
#18=FACE_OUTER_BOUND('',#29,.T.);
#19=FACE_OUTER_BOUND('',#30,.T.);
#20=FACE_OUTER_BOUND('',#31,.T.);
#21=FACE_OUTER_BOUND('',#32,.T.);
#22=FACE_OUTER_BOUND('',#33,.T.);
#23=FACE_OUTER_BOUND('',#34,.T.);
#24=FACE_OUTER_BOUND('',#35,.T.);
#25=FACE_OUTER_BOUND('',#36,.T.);
#26=FACE_OUTER_BOUND('',#38,.T.);
#27=EDGE_LOOP('',(#127,#128,#129,#130));
#28=EDGE_LOOP('',(#131,#132,#133,#134));
#29=EDGE_LOOP('',(#135,#136,#137,#138));
#30=EDGE_LOOP('',(#139,#140,#141,#142));
#31=EDGE_LOOP('',(#143,#144,#145,#146));
#32=EDGE_LOOP('',(#147,#148,#149,#150));
#33=EDGE_LOOP('',(#151,#152,#153,#154));
#34=EDGE_LOOP('',(#155,#156,#157,#158));
#35=EDGE_LOOP('',(#159,#160,#161,#162));
#36=EDGE_LOOP('',(#163,#164,#165,#166));
#37=EDGE_LOOP('',(#167,#168,#169,#170));
#38=EDGE_LOOP('',(#171,#172,#173,#174));
#39=LINE('',#274,#63);
#40=LINE('',#276,#64);
#41=LINE('',#278,#65);
#42=LINE('',#279,#66);
#43=LINE('',#282,#67);
#44=LINE('',#284,#68);
#45=LINE('',#285,#69);
#46=LINE('',#288,#70);
#47=LINE('',#289,#71);
#48=LINE('',#292,#72);
#49=LINE('',#293,#73);
#50=LINE('',#295,#74);
#51=LINE('',#299,#75);
#52=LINE('',#301,#76);
#53=LINE('',#303,#77);
#54=LINE('',#304,#78);
#55=LINE('',#307,#79);
#56=LINE('',#309,#80);
#57=LINE('',#310,#81);
#58=LINE('',#313,#82);
#59=LINE('',#315,#83);
#60=LINE('',#316,#84);
#61=LINE('',#318,#85);
#62=LINE('',#319,#86);
#63=VECTOR('',#226,10.);
#64=VECTOR('',#227,10.);
#65=VECTOR('',#228,10.);
#66=VECTOR('',#229,10.);
#67=VECTOR('',#232,10.);
#68=VECTOR('',#233,10.);
#69=VECTOR('',#234,10.);
#70=VECTOR('',#237,10.);
#71=VECTOR('',#238,10.);
#72=VECTOR('',#241,10.);
#73=VECTOR('',#242,10.);
#74=VECTOR('',#245,10.);
#75=VECTOR('',#248,10.);
#76=VECTOR('',#249,10.);
#77=VECTOR('',#250,10.);
#78=VECTOR('',#251,10.);
#79=VECTOR('',#254,10.);
#80=VECTOR('',#255,10.);
#81=VECTOR('',#256,10.);
#82=VECTOR('',#259,10.);
#83=VECTOR('',#260,10.);
#84=VECTOR('',#261,10.);
#85=VECTOR('',#264,10.);
#86=VECTOR('',#265,10.);
#87=VERTEX_POINT('',#272);
#88=VERTEX_POINT('',#273);
#89=VERTEX_POINT('',#275);
#90=VERTEX_POINT('',#277);
#91=VERTEX_POINT('',#281);
#92=VERTEX_POINT('',#283);
#93=VERTEX_POINT('',#287);
#94=VERTEX_POINT('',#291);
#95=VERTEX_POINT('',#297);
#96=VERTEX_POINT('',#298);
#97=VERTEX_POINT('',#300);
#98=VERTEX_POINT('',#302);
#99=VERTEX_POINT('',#306);
#100=VERTEX_POINT('',#308);
#101=VERTEX_POINT('',#312);
#102=VERTEX_POINT('',#314);
#103=EDGE_CURVE('',#87,#88,#39,.T.);
#104=EDGE_CURVE('',#89,#87,#40,.T.);
#105=EDGE_CURVE('',#90,#89,#41,.T.);
#106=EDGE_CURVE('',#90,#88,#42,.T.);
#107=EDGE_CURVE('',#89,#91,#43,.T.);
#108=EDGE_CURVE('',#92,#91,#44,.T.);
#109=EDGE_CURVE('',#90,#92,#45,.T.);
#110=EDGE_CURVE('',#87,#93,#46,.T.);
#111=EDGE_CURVE('',#91,#93,#47,.T.);
#112=EDGE_CURVE('',#94,#92,#48,.T.);
#113=EDGE_CURVE('',#88,#94,#49,.T.);
#114=EDGE_CURVE('',#93,#94,#50,.T.);
#115=EDGE_CURVE('',#95,#96,#51,.T.);
#116=EDGE_CURVE('',#96,#97,#52,.T.);
#117=EDGE_CURVE('',#98,#97,#53,.T.);
#118=EDGE_CURVE('',#95,#98,#54,.T.);
#119=EDGE_CURVE('',#99,#95,#55,.T.);
#120=EDGE_CURVE('',#100,#98,#56,.T.);
#121=EDGE_CURVE('',#99,#100,#57,.T.);
#122=EDGE_CURVE('',#101,#99,#58,.T.);
#123=EDGE_CURVE('',#102,#100,#59,.T.);
#124=EDGE_CURVE('',#101,#102,#60,.T.);
#125=EDGE_CURVE('',#96,#101,#61,.T.);
#126=EDGE_CURVE('',#97,#102,#62,.T.);
#127=ORIENTED_EDGE('',*,*,#103,.F.);
#128=ORIENTED_EDGE('',*,*,#104,.F.);
#129=ORIENTED_EDGE('',*,*,#105,.F.);
#130=ORIENTED_EDGE('',*,*,#106,.T.);
#131=ORIENTED_EDGE('',*,*,#105,.T.);
#132=ORIENTED_EDGE('',*,*,#107,.T.);
#133=ORIENTED_EDGE('',*,*,#108,.F.);
#134=ORIENTED_EDGE('',*,*,#109,.F.);
#135=ORIENTED_EDGE('',*,*,#104,.T.);
#136=ORIENTED_EDGE('',*,*,#110,.T.);
#137=ORIENTED_EDGE('',*,*,#111,.F.);
#138=ORIENTED_EDGE('',*,*,#107,.F.);
#139=ORIENTED_EDGE('',*,*,#106,.F.);
#140=ORIENTED_EDGE('',*,*,#109,.T.);
#141=ORIENTED_EDGE('',*,*,#112,.F.);
#142=ORIENTED_EDGE('',*,*,#113,.F.);
#143=ORIENTED_EDGE('',*,*,#103,.T.);
#144=ORIENTED_EDGE('',*,*,#113,.T.);
#145=ORIENTED_EDGE('',*,*,#114,.F.);
#146=ORIENTED_EDGE('',*,*,#110,.F.);
#147=ORIENTED_EDGE('',*,*,#115,.T.);
#148=ORIENTED_EDGE('',*,*,#116,.T.);
#149=ORIENTED_EDGE('',*,*,#117,.F.);
#150=ORIENTED_EDGE('',*,*,#118,.F.);
#151=ORIENTED_EDGE('',*,*,#119,.T.);
#152=ORIENTED_EDGE('',*,*,#118,.T.);
#153=ORIENTED_EDGE('',*,*,#120,.F.);
#154=ORIENTED_EDGE('',*,*,#121,.F.);
#155=ORIENTED_EDGE('',*,*,#122,.T.);
#156=ORIENTED_EDGE('',*,*,#121,.T.);
#157=ORIENTED_EDGE('',*,*,#123,.F.);
#158=ORIENTED_EDGE('',*,*,#124,.F.);
#159=ORIENTED_EDGE('',*,*,#125,.T.);
#160=ORIENTED_EDGE('',*,*,#124,.T.);
#161=ORIENTED_EDGE('',*,*,#126,.F.);
#162=ORIENTED_EDGE('',*,*,#116,.F.);
#163=ORIENTED_EDGE('',*,*,#126,.T.);
#164=ORIENTED_EDGE('',*,*,#123,.T.);
#165=ORIENTED_EDGE('',*,*,#120,.T.);
#166=ORIENTED_EDGE('',*,*,#117,.T.);
#167=ORIENTED_EDGE('',*,*,#111,.T.);
#168=ORIENTED_EDGE('',*,*,#114,.T.);
#169=ORIENTED_EDGE('',*,*,#112,.T.);
#170=ORIENTED_EDGE('',*,*,#108,.T.);
#171=ORIENTED_EDGE('',*,*,#125,.F.);
#172=ORIENTED_EDGE('',*,*,#115,.F.);
#173=ORIENTED_EDGE('',*,*,#119,.F.);
#174=ORIENTED_EDGE('',*,*,#122,.F.);
#175=PLANE('',#211);
#176=PLANE('',#212);
#177=PLANE('',#213);
#178=PLANE('',#214);
#179=PLANE('',#215);
#180=PLANE('',#216);
#181=PLANE('',#217);
#182=PLANE('',#218);
#183=PLANE('',#219);
#184=PLANE('',#220);
#185=PLANE('',#221);
#186=ADVANCED_FACE('',(#16),#175,.T.);
#187=ADVANCED_FACE('',(#17),#176,.T.);
#188=ADVANCED_FACE('',(#18),#177,.T.);
#189=ADVANCED_FACE('',(#19),#178,.T.);
#190=ADVANCED_FACE('',(#20),#179,.T.);
#191=ADVANCED_FACE('',(#21),#180,.T.);
#192=ADVANCED_FACE('',(#22),#181,.T.);
#193=ADVANCED_FACE('',(#23),#182,.T.);
#194=ADVANCED_FACE('',(#24),#183,.T.);
#195=ADVANCED_FACE('',(#25,#15),#184,.T.);
#196=ADVANCED_FACE('',(#26),#185,.F.);
#197=CLOSED_SHELL('',(#186,#187,#188,#189,#190,#191,#192,#193,#194,#195,
#196));
#198=DERIVED_UNIT_ELEMENT(#200,1.);
#199=DERIVED_UNIT_ELEMENT(#327,-3.);
#200=(
MASS_UNIT()
NAMED_UNIT(*)
SI_UNIT(.KILO.,.GRAM.)
);
#201=DERIVED_UNIT((#198,#199));
#202=MEASURE_REPRESENTATION_ITEM('density measure',
POSITIVE_RATIO_MEASURE(7850.),#201);
#203=PROPERTY_DEFINITION_REPRESENTATION(#208,#205);
#204=PROPERTY_DEFINITION_REPRESENTATION(#209,#206);
#205=REPRESENTATION('material name',(#207),#324);
#206=REPRESENTATION('density',(#202),#324);
#207=DESCRIPTIVE_REPRESENTATION_ITEM('Stahl','Stahl');
#208=PROPERTY_DEFINITION('material property','material name',#334);
#209=PROPERTY_DEFINITION('material property','density of part',#334);
#210=AXIS2_PLACEMENT_3D('',#270,#222,#223);
#211=AXIS2_PLACEMENT_3D('',#271,#224,#225);
#212=AXIS2_PLACEMENT_3D('',#280,#230,#231);
#213=AXIS2_PLACEMENT_3D('',#286,#235,#236);
#214=AXIS2_PLACEMENT_3D('',#290,#239,#240);
#215=AXIS2_PLACEMENT_3D('',#294,#243,#244);
#216=AXIS2_PLACEMENT_3D('',#296,#246,#247);
#217=AXIS2_PLACEMENT_3D('',#305,#252,#253);
#218=AXIS2_PLACEMENT_3D('',#311,#257,#258);
#219=AXIS2_PLACEMENT_3D('',#317,#262,#263);
#220=AXIS2_PLACEMENT_3D('',#320,#266,#267);
#221=AXIS2_PLACEMENT_3D('',#321,#268,#269);
#222=DIRECTION('axis',(0.,0.,1.));
#223=DIRECTION('refdir',(1.,0.,0.));
#224=DIRECTION('center_axis',(0.485642939473464,0.,0.874157271513298));
#225=DIRECTION('ref_axis',(-0.874157271513298,0.,0.485642939473464));
#226=DIRECTION('',(0.874157271513298,0.,-0.485642939473464));
#227=DIRECTION('',(0.,1.,0.));
#228=DIRECTION('',(-0.874157271513298,0.,0.485642939473464));
#229=DIRECTION('',(0.,1.,0.));
#230=DIRECTION('center_axis',(0.,1.,0.));
#231=DIRECTION('ref_axis',(-1.,0.,0.));
#232=DIRECTION('',(0.,0.,1.));
#233=DIRECTION('',(-1.,0.,0.));
#234=DIRECTION('',(0.,0.,1.));
#235=DIRECTION('center_axis',(1.,0.,0.));
#236=DIRECTION('ref_axis',(0.,1.,0.));
#237=DIRECTION('',(0.,0.,1.));
#238=DIRECTION('',(0.,1.,0.));
#239=DIRECTION('center_axis',(-1.,0.,0.));
#240=DIRECTION('ref_axis',(0.,-1.,0.));
#241=DIRECTION('',(0.,-1.,0.));
#242=DIRECTION('',(0.,0.,1.));
#243=DIRECTION('center_axis',(0.,-1.,0.));
#244=DIRECTION('ref_axis',(1.,0.,0.));
#245=DIRECTION('',(1.,0.,0.));
#246=DIRECTION('center_axis',(-9.71338580647475E-33,-1.,0.));
#247=DIRECTION('ref_axis',(1.,-9.71338580647475E-33,0.));
#248=DIRECTION('',(1.,-9.71338580647475E-33,0.));
#249=DIRECTION('',(0.,0.,1.));
#250=DIRECTION('',(1.,-9.71338580647475E-33,0.));
#251=DIRECTION('',(0.,0.,1.));
#252=DIRECTION('center_axis',(-1.,-1.03174818449316E-33,0.));
#253=DIRECTION('ref_axis',(1.03174818449316E-33,-1.,0.));
#254=DIRECTION('',(1.03174818449316E-33,-1.,0.));
#255=DIRECTION('',(1.03174818449316E-33,-1.,0.));
#256=DIRECTION('',(0.,0.,1.));
#257=DIRECTION('center_axis',(0.,1.,0.));
#258=DIRECTION('ref_axis',(-1.,0.,0.));
#259=DIRECTION('',(-1.,0.,0.));
#260=DIRECTION('',(-1.,0.,0.));
#261=DIRECTION('',(0.,0.,1.));
#262=DIRECTION('center_axis',(1.,0.,0.));
#263=DIRECTION('ref_axis',(0.,1.,0.));
#264=DIRECTION('',(0.,1.,0.));
#265=DIRECTION('',(0.,1.,0.));
#266=DIRECTION('center_axis',(0.,0.,1.));
#267=DIRECTION('ref_axis',(1.,0.,0.));
#268=DIRECTION('center_axis',(0.,0.,1.));
#269=DIRECTION('ref_axis',(1.,0.,0.));
#270=CARTESIAN_POINT('',(0.,0.,0.));
#271=CARTESIAN_POINT('Origin',(20.4999995417893,3.1,1.99999995529652));
#272=CARTESIAN_POINT('',(2.49999994412065,3.1,11.9999999552965));
#273=CARTESIAN_POINT('',(20.4999999441206,3.09999994412065,2.));
#274=CARTESIAN_POINT('',(14.0471695748649,3.09999994412065,5.58490557260559));
#275=CARTESIAN_POINT('',(2.49999994412065,2.5,11.9999999552965));
#276=CARTESIAN_POINT('',(2.49999994412065,2.79999997206032,11.9999999552965));
#277=CARTESIAN_POINT('',(20.4999999441206,2.49999994412065,2.));
#278=CARTESIAN_POINT('',(20.9245279929211,2.49999994412065,1.7641508105072));
#279=CARTESIAN_POINT('',(20.4999999441206,2.49999994412065,2.));
#280=CARTESIAN_POINT('Origin',(20.4999999441206,2.49999994412065,0.));
#281=CARTESIAN_POINT('',(2.49999994412065,2.49999994412065,25.));
#282=CARTESIAN_POINT('',(2.49999994412065,2.49999994412065,0.));
#283=CARTESIAN_POINT('',(20.4999999441206,2.49999994412065,25.));
#284=CARTESIAN_POINT('',(2.49999994412065,2.49999994412065,25.));
#285=CARTESIAN_POINT('',(20.4999999441206,2.49999994412065,0.));
#286=CARTESIAN_POINT('Origin',(2.49999994412065,2.49999994412065,0.));
#287=CARTESIAN_POINT('',(2.49999994412065,3.09999994412065,25.));
#288=CARTESIAN_POINT('',(2.49999994412065,3.09999994412065,0.));
#289=CARTESIAN_POINT('',(2.49999994412065,3.09999994412065,25.));
#290=CARTESIAN_POINT('Origin',(20.4999999441206,3.09999994412065,0.));
#291=CARTESIAN_POINT('',(20.4999999441206,3.09999994412065,25.));
#292=CARTESIAN_POINT('',(20.4999999441206,2.49999994412065,25.));
#293=CARTESIAN_POINT('',(20.4999999441206,3.09999994412065,0.));
#294=CARTESIAN_POINT('Origin',(2.49999994412065,3.09999994412065,0.));
#295=CARTESIAN_POINT('',(20.4999999441206,3.09999994412065,25.));
#296=CARTESIAN_POINT('Origin',(0.,0.,0.));
#297=CARTESIAN_POINT('',(0.,0.,0.));
#298=CARTESIAN_POINT('',(23.,-2.23407873548919E-31,0.));
#299=CARTESIAN_POINT('',(0.,0.,0.));
#300=CARTESIAN_POINT('',(23.,0.,25.));
#301=CARTESIAN_POINT('',(23.,-2.23407873548919E-31,0.));
#302=CARTESIAN_POINT('',(0.,0.,25.));
#303=CARTESIAN_POINT('',(0.,0.,25.));
#304=CARTESIAN_POINT('',(0.,0.,0.));
#305=CARTESIAN_POINT('Origin',(-5.77778983316171E-33,5.6,0.));
#306=CARTESIAN_POINT('',(-5.77778983316171E-33,5.6,0.));
#307=CARTESIAN_POINT('',(-5.77778983316171E-33,5.6,0.));
#308=CARTESIAN_POINT('',(0.,5.6,25.));
#309=CARTESIAN_POINT('',(-5.77778983316171E-33,5.6,25.));
#310=CARTESIAN_POINT('',(-5.77778983316171E-33,5.6,0.));
#311=CARTESIAN_POINT('Origin',(23.,5.6,0.));
#312=CARTESIAN_POINT('',(23.,5.6,0.));
#313=CARTESIAN_POINT('',(23.,5.6,0.));
#314=CARTESIAN_POINT('',(23.,5.6,25.));
#315=CARTESIAN_POINT('',(23.,5.6,25.));
#316=CARTESIAN_POINT('',(23.,5.6,0.));
#317=CARTESIAN_POINT('Origin',(23.,-2.23407873548919E-31,0.));
#318=CARTESIAN_POINT('',(23.,-2.23407873548919E-31,0.));
#319=CARTESIAN_POINT('',(23.,-2.23407873548919E-31,25.));
#320=CARTESIAN_POINT('Origin',(11.5,2.8,25.));
#321=CARTESIAN_POINT('Origin',(11.4999999441206,2.79999994412065,0.));
#322=UNCERTAINTY_MEASURE_WITH_UNIT(LENGTH_MEASURE(0.01),#326,
'DISTANCE_ACCURACY_VALUE',
'Maximum model space distance between geometric entities at asserted c
onnectivities');
#323=UNCERTAINTY_MEASURE_WITH_UNIT(LENGTH_MEASURE(0.01),#326,
'DISTANCE_ACCURACY_VALUE',
'Maximum model space distance between geometric entities at asserted c
onnectivities');
#324=(
GEOMETRIC_REPRESENTATION_CONTEXT(3)
GLOBAL_UNCERTAINTY_ASSIGNED_CONTEXT((#322))
GLOBAL_UNIT_ASSIGNED_CONTEXT((#326,#328,#329))
REPRESENTATION_CONTEXT('','3D')
);
#325=(
GEOMETRIC_REPRESENTATION_CONTEXT(3)
GLOBAL_UNCERTAINTY_ASSIGNED_CONTEXT((#323))
GLOBAL_UNIT_ASSIGNED_CONTEXT((#326,#328,#329))
REPRESENTATION_CONTEXT('','3D')
);
#326=(
LENGTH_UNIT()
NAMED_UNIT(*)
SI_UNIT(.MILLI.,.METRE.)
);
#327=(
LENGTH_UNIT()
NAMED_UNIT(*)
SI_UNIT($,.METRE.)
);
#328=(
NAMED_UNIT(*)
PLANE_ANGLE_UNIT()
SI_UNIT($,.RADIAN.)
);
#329=(
NAMED_UNIT(*)
SI_UNIT($,.STERADIAN.)
SOLID_ANGLE_UNIT()
);
#330=SHAPE_DEFINITION_REPRESENTATION(#331,#332);
#331=PRODUCT_DEFINITION_SHAPE('',$,#334);
#332=SHAPE_REPRESENTATION('',(#210),#324);
#333=PRODUCT_DEFINITION_CONTEXT('part definition',#338,'design');
#334=PRODUCT_DEFINITION('protection','protection v3',#335,#333);
#335=PRODUCT_DEFINITION_FORMATION('',$,#340);
#336=PRODUCT_RELATED_PRODUCT_CATEGORY('protection v3','protection v3',(#340));
#337=APPLICATION_PROTOCOL_DEFINITION('international standard',
'ap242_managed_model_based_3d_engineering',2011,#338);
#338=APPLICATION_CONTEXT('Managed model based 3d engineering');
#339=PRODUCT_CONTEXT('part definition',#338,'mechanical');
#340=PRODUCT('protection','protection v3',$,(#339));
#341=PRESENTATION_STYLE_ASSIGNMENT((#342));
#342=SURFACE_STYLE_USAGE(.BOTH.,#343);
#343=SURFACE_SIDE_STYLE('',(#344));
#344=SURFACE_STYLE_FILL_AREA(#345);
#345=FILL_AREA_STYLE('Stahl - satiniert',(#346));
#346=FILL_AREA_STYLE_COLOUR('Stahl - satiniert',#347);
#347=COLOUR_RGB('Stahl - satiniert',0.627450980392157,0.627450980392157,
0.627450980392157);
ENDSEC;
END-ISO-10303-21;
